<svg xmlns="http://www.w3.org/2000/svg" fill-rule="evenodd" clip-rule="evenodd" viewBox="0 0 453 218" height="288.75" width="600">
  <path fill="#fff" d="M1.88 4.08v209.838c0 1.467.733 2.2 2.2 2.2H448.7c1.468 0 2.201-.733 2.201-2.2V4.08c0-1.468-.733-2.202-2.2-2.202H4.08c-1.468 0-2.202.734-2.202 2.202z"/>
  <g transform="matrix(.7337 0 0 -.7337 -43.61 357.722)">
    <clipPath id="a">
      <path d="M61 192h614v294H61z"/>
    </clipPath>
    <g clip-path="url(#a)">
      <path fill="none" stroke="#d9d9d9" d="M61.5 196v286c0 2.333 1.167 3.5 3.5 3.5h606c2.333 0 3.5-1.167 3.5-3.5V196c0-2.333-1.167-3.5-3.5-3.5H65c-2.333 0-3.5 1.167-3.5 3.5z"/>
    </g>
  </g>
  <g transform="matrix(.7337 0 0 -.7337 -43.61 407.613)">
    <clipPath id="b">
      <path d="M674 549c0 2-1 3-3 3H65c-2 0-3-1-3-3V263c0-.764.255-1.431.764-2h610.472c.509.569.764 1.236.764 2v286z"/>
    </clipPath>
    <g clip-path="url(#b)">
      <path fill="#fff" d="M67 266h602v214H67z"/>
    </g>
  </g>
  <path fill="#111" fill-rule="nonzero" d="M29.76 110.1c0 1.223-.611 1.834-1.834 1.834-1.224 0-1.835-.611-1.835-1.834 0-1.224.611-1.835 1.835-1.835 1.223 0 1.834.611 1.834 1.835zM29.76 125.507c0 1.223-.611 1.834-1.834 1.834-1.224 0-1.835-.611-1.835-1.834s.611-1.835 1.835-1.835c1.223 0 1.834.612 1.834 1.835zM29.76 140.915c0 1.223-.612 1.834-1.835 1.834-1.223 0-1.834-.611-1.834-1.834s.611-1.835 1.834-1.835 1.835.612 1.835 1.835zM29.76 156.323c0 1.223-.611 1.834-1.834 1.834s-1.834-.611-1.834-1.834.61-1.835 1.834-1.835c1.223 0 1.834.612 1.834 1.835zM29.76 171.73c0 1.223-.612 1.834-1.835 1.834-1.223 0-1.834-.611-1.834-1.834s.611-1.835 1.834-1.835 1.834.612 1.834 1.835z"/>
  <path fill="#f7f7f7" d="M1.88 51.77V4.814c0-1.468.733-2.201 2.2-2.201H448.7c1.468 0 2.201.733 2.201 2.2V51.77H1.88z"/>
  <path fill="silver" d="M1.88 52.504H450.9v-.733H1.88z"/>
  <path fill="#ddd" d="M5.548 7.75v16.874c0 .978.734 1.467 2.201 1.467h111.522c1.467 0 2.2-.489 2.2-1.467V7.75c0-1.467-.733-2.201-2.2-2.201H7.749c-1.467 0-2.201.734-2.201 2.201z"/>
  <path fill="#aaa" d="M119.27 26.091c1.468 0 2.202-.489 2.202-1.467 0 1.467-.734 2.201-2.201 2.201H7.749c-1.467 0-2.201-.734-2.201-2.2 0 .978.734 1.466 2.201 1.466h111.522z"/>
  <path fill="#111" d="M49.998 20.13h7.948v-.55h-7.948z"/>
  <g fill="#111" font-size="11.005" font-weight="700">
    <text x="83.455" y="186.478" font-family="'Helvetica-Bold','Helvetica'" transform="translate(-71.61 -167.724)">
      B
    </text>
    <text x="104.977" y="186.478" font-family="'Helvetica-BoldOblique','Helvetica'" font-style="italic" transform="translate(-71.61 -167.724)">
      i
    </text>
    <text x="121.608" y="186.478" font-family="'Helvetica-Bold','Helvetica'" transform="translate(-71.61 -167.724)">
      U
    </text>
    <text x="140.987" y="186.478" font-family="'Helvetica-Bold','Helvetica'" transform="translate(-71.61 -167.724)">
      S
    </text>
  </g>
  <path fill="#111" d="M78.184 15.086v.734H67.912v-.734z"/>
  <path fill="#111" fill-rule="nonzero" d="M94.325 17.287v.734h2.201v.733h-2.2v2.202h2.934v-.734h-2.201v-.734h2.2v-2.201h-2.934zm-7.337-5.136l2.201 3.669-2.2 3.668h1.466l2.202-3.668h-1.468l2.201 3.668h1.468l-2.201-3.668 2.2-3.669H91.39l-2.2 3.669h1.467l-2.202-3.669h-1.467zM113.4 10.684v.733h2.202v.734H113.4v2.201h2.934v-.733h-2.2v-.734h2.2v-2.201h-2.934zm-7.336 1.467l2.2 3.669-2.2 3.668h1.467l2.201-3.668h-1.467l2.2 3.668h1.468l-2.2-3.668 2.2-3.669h-1.467l-2.201 3.669h1.467l-2.2-3.669h-1.468z"/>
  <path fill="#ddd" d="M125.14 7.75v16.874c0 .978.734 1.467 2.201 1.467h73.37c1.467 0 2.201-.489 2.201-1.467V7.75c0-1.467-.734-2.201-2.2-2.201h-73.37c-1.468 0-2.202.734-2.202 2.201z"/>
  <path fill="#aaa" d="M200.711 26.091c1.467 0 2.201-.489 2.201-1.467 0 1.467-.734 2.201-2.2 2.201h-73.37c-1.468 0-2.202-.734-2.202-2.2.001.978.735 1.466 2.201 1.466h73.37z"/>
  <path fill="#111" fill-rule="nonzero" d="M130.276 10.684h10.271v1.467h-10.271v-1.467zm0 2.935h7.337v1.467h-7.337v-1.467zm0 2.934h10.271v1.468h-10.271v-1.468zm0 2.935h7.337v1.468h-7.337v-1.468zM149.353 10.684h10.271v1.467h-10.271v-1.467zm1.467 2.935h7.337v1.467h-7.337v-1.467zm-1.467 2.934h10.271v1.468h-10.271v-1.468zm1.467 2.935h7.337v1.468h-7.337v-1.468zM168.429 10.684H178.7v1.467H168.43v-1.467zm2.934 2.935h7.337v1.467h-7.337v-1.467zm-2.934 2.934H178.7v1.468H168.43v-1.468zm2.934 2.935h7.337v1.468h-7.337v-1.468zM187.505 10.684h10.271v1.467h-10.271v-1.467zm0 2.935h10.271v1.467h-10.271v-1.467zm0 2.934h10.271v1.468h-10.271v-1.468zm0 2.935h10.271v1.468h-10.271v-1.468z"/>
  <path fill="#ddd" d="M206.58 7.75v16.874c0 .978.734 1.467 2.202 1.467h73.37c1.467 0 2.2-.489 2.2-1.467V7.75c0-1.467-.733-2.201-2.2-2.201h-73.37c-1.468 0-2.201.734-2.201 2.201z"/>
  <path fill="#aaa" d="M282.151 26.091c1.468 0 2.201-.489 2.201-1.467 0 1.467-.733 2.201-2.2 2.201h-73.37c-1.467 0-2.2-.734-2.201-2.2 0 .978.734 1.466 2.2 1.466h73.37z"/>
  <path fill="#111" fill-rule="nonzero" d="M216.818 17.104h-2.979l-.29.837c-.096.28-.186.551-.27.813h-1.782c.286-.82.559-1.58.816-2.278a76.164 76.164 0 0 1 1.485-3.726 37.66 37.66 0 0 1 .746-1.623h1.627a58.947 58.947 0 0 1 1.475 3.379c.248.616.077.248.336.945.26.697-1.067 1.93-1.164 1.653zm-1.497-4.25c-.039.112-.095.263-.168.453-.074.19-.158.41-.252.66-.095.251-.2.526-.316.826-.117.3-.235.616-.355.945h2.18c-.117-.33-.229-.647-.338-.948a37.43 37.43 0 0 0-.312-.827l-.26-.66c-.073-.19-.133-.34-.18-.448zm5.098 7.369a25.74 25.74 0 0 0-.257-.761l-.272-.78h-2.78l-.27.78c-.086.253-.17.506-.252.76h-1.663c.268-.767.522-1.475.762-2.125a73.853 73.853 0 0 1 1.386-3.478c.224-.518.455-1.022.696-1.516h1.518c.233.494.465.998.69 1.516.229.517.456 1.063.687 1.64.23.574.467 1.187.707 1.838.24.652.496 1.36.764 2.125h-1.716zm-1.926-5.506c-.036.103-.086.244-.156.423-.07.177-.147.382-.234.616l-.295.77c-.108.281-.22.575-.33.882h2.033a51.34 51.34 0 0 0-.608-1.657c-.091-.232-.17-.438-.242-.616a9.378 9.378 0 0 0-.168-.418zM239.23 10.431l-1.834 2.454h3.668l-1.834-2.454zm-5.8 2.82c-.224.462-.438.928-.642 1.4-.204.476-.427.978-.642 1.513-.21.535-.42 1.115-.642 1.72-.223.604-.463 1.26-.711 1.97h1.536c.07-.229.147-.469.23-.71.088-.241.192-.47.275-.711h2.568c.083.241.17.47.252.71.089.242.16.482.23.712h1.605c-.248-.713-.489-1.368-.71-1.972a57.616 57.616 0 0 0-.666-1.72 41.68 41.68 0 0 0-.619-1.514c-.21-.484-.426-.94-.642-1.398h-1.422zm3.966 1.101l1.834 2.43 1.834-2.43h-3.668zm-3.302.389c.038.095.097.225.161.39.063.165.147.357.23.573.088.217.18.45.275.711.095.262.196.539.298.826h-1.88c.101-.287.179-.565.274-.826.102-.26.215-.494.298-.711.083-.218.143-.408.206-.573.064-.164.107-.294.138-.39z"/>
  <text x="323.17" y="186.111" fill="#111" font-family="'Helvetica-Bold','Helvetica'" font-size="9.538" font-weight="700" transform="translate(-71.61 -167.724)">
    A
  </text>
  <path fill="#ff4136" d="M250.602 20.955h8.805v-1.467h-8.805z"/>
  <path fill="#888" fill-rule="nonzero" d="M274.654 11.417l-.092.092-3.577 3.577-.092.092-2.2 2.2-.23.23.183.253 2.201 2.935.115.16h1.812l.092-.114 5.87-5.87.23-.23-.184-.253-2.201-2.934-.114-.138h-1.813zm.298.734h.436l-2.935 2.935h-.436l2.935-2.935zm1.284.184l1.765 2.339-3.14 3.14-1.766-2.338 3.141-3.141z"/>
  <path fill="#ddd" d="M288.02 7.75v16.874c0 .978.735 1.467 2.202 1.467h54.293c1.468 0 2.202-.489 2.202-1.467V7.75c0-1.467-.734-2.201-2.202-2.201h-54.293c-1.467 0-2.201.734-2.201 2.201z"/>
  <path fill="#aaa" d="M344.515 26.091c1.468 0 2.202-.489 2.202-1.467 0 1.467-.734 2.201-2.202 2.201h-54.293c-1.467 0-2.2-.734-2.201-2.2 0 .978.734 1.466 2.201 1.466h54.293z"/>
  <path fill="#888" fill-rule="nonzero" d="M294.624 10.317c0 2.154 2.77 5.671 2.89 5.824l-1.33 2.087a1.778 1.778 0 0 0-.826-.207 1.84 1.84 0 0 0-1.834 1.834 1.84 1.84 0 0 0 1.834 1.834 1.84 1.84 0 0 0 1.834-1.834c0-.326-.101-.628-.252-.895l1.353-1.787 1.353 1.789a1.781 1.781 0 0 0-.253.893 1.84 1.84 0 0 0 1.834 1.834 1.84 1.84 0 0 0 1.835-1.834 1.84 1.84 0 0 0-1.835-1.834c-.292.001-.567.07-.825.205l-1.33-2.084c.12-.152 2.889-3.67 2.889-5.825h-.734l-2.934 4.607-2.935-4.607h-.734zm.734 8.437c.612 0 1.1.489 1.1 1.1 0 .613-.488 1.101-1.1 1.101-.612 0-1.1-.488-1.1-1.1 0-.612.488-1.1 1.1-1.1zm5.87 0c.611 0 1.1.489 1.1 1.1 0 .613-.489 1.101-1.1 1.101-.613 0-1.101-.488-1.101-1.1 0-.612.488-1.1 1.1-1.1zM316.198 13.62c-.203.039-.302.16-.298.367v7.337c0 .244.122.367.367.367h5.87c.243 0 .366-.123.366-.367v-5.067a.361.361 0 0 0 0-.07v-.092l-.023-.046v-.022a.438.438 0 0 0-.069-.07l-.022-.022-2.11-2.087a.357.357 0 0 0-.092-.114.352.352 0 0 0-.252-.115h-3.668a.433.433 0 0 0-.07.001c-.175.034.023-.002 0 0zm.435.734h2.935v1.834c0 .244.123.367.367.367h1.834v4.402h-5.136v-6.603zm3.669.504l.963.963h-.963v-.963zM312.53 9.95c-.197.044-.296.166-.298.367v7.337c0 .193.174.367.367.367h4.035v-3.67l2.201-.046v-1.718a.361.361 0 0 0 0-.069.243.243 0 0 0 0-.046v-.046l-.023-.046v-.022a.438.438 0 0 0-.069-.07l-.022-.022-2.11-2.087a.348.348 0 0 0-.092-.114.359.359 0 0 0-.252-.115H312.6a.361.361 0 0 0-.07 0c-.167.033.024-.002 0 0zm.435.734h2.935v1.834c0 .193.175.367.367.367h1.834v.755l-1.467-.022-.734.733v2.935l-2.935.001v-6.603zm3.669.504l.963.964h-.963v-.964z"/>
  <path fill="#111" fill-rule="nonzero" d="M333.808 9.95c-.203.039-.302.16-.298.367v.367h-1.834a.356.356 0 0 0-.26.107.356.356 0 0 0-.107.26v7.337c0 .244.122.366.367.366h3.301v1.835c0 .244.123.367.367.367h5.87c.244 0 .366-.123.366-.367v-5.067a.361.361 0 0 0 0-.07.32.32 0 0 0 0-.09l-.022-.047v-.023a.687.687 0 0 0-.047-.046.687.687 0 0 0-.046-.046l-2.11-2.087a.357.357 0 0 0-.09-.114.354.354 0 0 0-.252-.114h-1.101V11.05c0-.245-.123-.367-.367-.367h-1.834v-.367c0-.244-.123-.367-.367-.367h-1.467a.361.361 0 0 0-.07 0zm-1.766 1.467h.734v.367c0 .245.123.367.367.367h2.935c.244 0 .367-.122.367-.367v-.367h.733v1.468h-1.834a.47.47 0 0 0-.045 0 .38.38 0 0 0-.07.023.359.359 0 0 0-.091.046l-.023.023-.023.022-.046.023a.33.33 0 0 0-.023.069l-.022.023a.369.369 0 0 0-.024.138v4.769h-2.935v-6.604zm3.669 2.202h2.935v1.834c0 .244.122.367.367.367h1.834v4.402h-5.136v-1.765a.361.361 0 0 0 0-.07V13.62zm3.668.504l.964.963h-.964v-.963zm-5.571-4.173c-.203.039-.302.16-.298.367v.367h-1.834a.356.356 0 0 0-.26.107.356.356 0 0 0-.107.26v7.337c0 .244.122.366.367.366h3.668c.244 0 .367-.122.367-.366v-4.77h1.834c.244 0 .367-.122.367-.366V11.05c0-.245-.123-.367-.367-.367h-1.834v-.367c0-.244-.123-.367-.367-.367h-1.467a.361.361 0 0 0-.07 0zm-1.766 1.467h.734v.367c0 .245.123.367.367.367h2.935c.244 0 .367-.122.367-.367v-.367h.733v1.468h-1.834a.356.356 0 0 0-.26.107.356.356 0 0 0-.107.26v4.769h-2.935v-6.604zm3.233 1.468c-.202.039-.301.16-.298.367v7.337c0 .244.123.367.367.367h5.87c.244 0 .366-.123.366-.367v-5.067a.361.361 0 0 0 0-.07.243.243 0 0 0 0-.045v-.046l-.022-.046v-.023a.384.384 0 0 0-.07-.069l-.022-.023-2.11-2.086a.357.357 0 0 0-.091-.115.352.352 0 0 0-.252-.114h-3.669a.361.361 0 0 0-.069 0zm.436.734h2.935v1.834c0 .244.122.367.367.367h1.834v4.402h-5.136v-6.603zm3.668.504l.964.963h-.964v-.963z"/>
  <path fill="#ddd" d="M350.385 7.75v16.874c0 .978.734 1.467 2.201 1.467h73.37c1.467 0 2.2-.489 2.2-1.467V7.75c0-1.467-.733-2.201-2.2-2.201h-73.37c-1.467 0-2.2.734-2.2 2.201z"/>
  <path fill="#aaa" d="M425.956 26.091c1.467 0 2.2-.489 2.2-1.467 0 1.467-.733 2.201-2.2 2.201h-73.37c-1.467 0-2.2-.734-2.2-2.2 0 .978.733 1.466 2.2 1.466h73.37z"/>
  <path fill="#111" fill-rule="nonzero" d="M359.19 11.417h6.602v1.468h-6.603v-1.468zm0 3.669h6.602v1.467h-6.603v-1.467zm0 3.668h6.602v1.468h-6.603v-1.468zM358.272 12.151c0 .856-.428 1.284-1.284 1.284-.856 0-1.284-.428-1.284-1.284 0-.856.428-1.284 1.284-1.284.856 0 1.284.428 1.284 1.284zM358.272 15.82c0 .856-.427 1.284-1.284 1.284-.856 0-1.284-.428-1.284-1.284 0-.857.428-1.284 1.284-1.284.857 0 1.284.427 1.284 1.284zM358.272 19.488c0 .856-.428 1.284-1.284 1.284-.856 0-1.284-.428-1.284-1.284 0-.856.428-1.284 1.284-1.284.856 0 1.284.428 1.284 1.284zM378.265 11.417h6.603v1.468h-6.603v-1.468zm0 3.669h6.603v1.467h-6.603v-1.467zm0 3.668h6.603v1.468h-6.603v-1.468zm-2.053.621a.79.79 0 0 1 .435.258c.1.123.15.278.15.467 0 .282-.107.496-.323.643-.215.146-.53.22-.944.22-.146 0-.292-.013-.44-.038a2.74 2.74 0 0 1-.433-.104v-.565c.137.068.273.12.407.156.136.034.269.051.4.051.194 0 .342-.034.445-.1a.325.325 0 0 0 .156-.29.324.324 0 0 0-.16-.293c-.105-.067-.261-.1-.468-.1h-.294v-.473h.31c.183 0 .32-.029.41-.085a.294.294 0 0 0 .136-.264.289.289 0 0 0-.132-.254.654.654 0 0 0-.37-.09c-.119 0-.239.014-.359.04a1.94 1.94 0 0 0-.36.118v-.536a3.017 3.017 0 0 1 .848-.122c.37 0 .647.061.83.183.183.12.275.302.275.546a.624.624 0 0 1-.131.409.717.717 0 0 1-.388.223zm-.664-2.648h1.25v.539h-2.065v-.539l1.037-.915a.98.98 0 0 0 .205-.246.503.503 0 0 0 .067-.249.412.412 0 0 0-.135-.321.506.506 0 0 0-.356-.122c-.114 0-.239.025-.375.074a2.31 2.31 0 0 0-.435.217v-.624c.165-.055.327-.096.489-.124.16-.03.318-.044.473-.044.34 0 .605.075.793.225.188.15.283.358.283.626 0 .155-.04.3-.12.434-.08.133-.249.312-.505.537l-.606.532zm-.784-3.64h.663v-1.88l-.68.14v-.51l.676-.14h.712v2.391h.663v.518h-2.034v-.519z"/>
  <path fill="#888" fill-rule="nonzero" d="M393.673 10.684h10.271v1.467h-10.271v-1.467zm3.668 2.935h6.603v1.467h-6.603v-1.467zm0 2.934h6.603v1.468h-6.603v-1.468zm-3.668 2.935h10.271v1.468h-10.271v-1.468zm2.934-3.668l-2.934-2.201v4.402l2.934-2.201zM412.749 10.684h10.271v1.467H412.75v-1.467zm0 2.935h6.603v1.467h-6.603v-1.467zm0 2.934h6.603v1.468h-6.603v-1.468zm0 2.935h10.271v1.468H412.75v-1.468zm7.337-3.668l2.934-2.201v4.402l-2.934-2.201z"/>
  <path fill="#ddd" d="M5.548 30.494v16.875c0 .978.734 1.467 2.201 1.467H23.89c1.468 0 2.201-.49 2.201-1.467V30.494c0-1.468-.733-2.202-2.2-2.202H7.748c-1.467 0-2.201.734-2.201 2.202z"/>
  <path fill="#aaa" d="M23.89 48.836c1.468 0 2.201-.49 2.201-1.467 0 1.467-.733 2.2-2.2 2.2H7.748c-1.467 0-2.201-.733-2.201-2.2 0 .978.734 1.467 2.201 1.467H23.89z"/>
  <path fill="#111" fill-rule="nonzero" d="M10.684 34.162h10.271v1.467H10.684v-1.467zm0 1.467v7.337h10.271V35.63H10.684zm.733.734h2.568v1.467h-2.568v-1.467zm3.302 0h2.201v1.467h-2.2v-1.467zm2.935 0h2.568v1.467h-2.568v-1.467zm-6.237 2.201h2.568v1.468h-2.568v-1.468zm3.302 0h2.201v1.468h-2.2v-1.468zm2.935 0h2.568v1.468h-2.568v-1.468zm-6.237 2.201h2.568v1.468h-2.568v-1.468zm3.302 0h2.201v1.468h-2.2v-1.468zm2.935 0h2.568v1.468h-2.568v-1.468z"/>
  <path fill="#ddd" d="M29.76 30.494v16.875c0 .978.734 1.467 2.201 1.467h35.217c1.468 0 2.201-.49 2.201-1.467V30.494c0-1.468-.733-2.202-2.2-2.202H31.96c-1.467 0-2.201.734-2.201 2.202z"/>
  <path fill="#aaa" d="M67.178 48.836c1.468 0 2.201-.49 2.201-1.467 0 1.467-.733 2.2-2.2 2.2H31.96c-1.467 0-2.201-.733-2.201-2.2 0 .978.734 1.467 2.201 1.467h35.217z"/>
  <path fill="#111" fill-rule="nonzero" d="M39.298 37.097l-2.201 2.2 2.2 2.202v-1.1l-1.1-1.101 1.1-1.1v-1.101zm1.467 0v1.1l1.1 1.1-1.1 1.101v1.1l2.201-2.2-2.2-2.201zm-4.838-3.669c-.196.044-.295.166-.298.367v9.538c0 .192.175.367.367.367h8.07c.236-.009.359-.131.368-.367v-7.429c.001-.074-.096-.141-.115-.16l-2.2-2.201a.359.359 0 0 0-.253-.115h-5.939zm.436.734H41.5v1.834c0 .192.175.367.367.367H43.7v6.603h-7.337v-8.804zm5.87.505l.963.962h-.963v-.962zM59.108 34.172c-1.466 0-2.802.28-3.807.825-1.005.545-1.697 1.406-1.697 2.476 0 .908.68 1.72 1.674 2.316.994.595 2.345.986 3.829.986.252 0 .413.014.665 0l4.31 2.155c.277.132.627-.234.481-.504l-1.33-2.683c.911-.58 1.376-1.477 1.376-2.27 0-1.071-.692-1.93-1.697-2.476-1.005-.545-2.338-.825-3.804-.825z"/>
  <path fill="#ddd" d="M73.048 30.494v16.875c0 .978.734 1.467 2.201 1.467h92.446c1.467 0 2.2-.49 2.2-1.467V30.494c0-1.468-.733-2.202-2.2-2.202H75.249c-1.467 0-2.201.734-2.201 2.202z"/>
  <path fill="#aaa" d="M167.695 48.836c1.467 0 2.2-.49 2.2-1.467 0 1.467-.733 2.2-2.2 2.2H75.249c-1.467 0-2.201-.733-2.201-2.2 0 .978.734 1.467 2.201 1.467h92.446z"/>
  <path fill="#111" fill-rule="nonzero" d="M78.917 34.162v.734h8.805v-.734h-8.805zm0 1.467v.734h6.604v-.734h-6.604zm0 1.468v.734h8.805v-.734h-8.805zm0 1.467v1.468h8.805v-1.468h-8.805zM96.893 34.529v8.07h11.005v-8.07H96.893zm.734.733h9.538v6.604h-9.538v-6.603z"/>
  <path fill="#111" fill-rule="nonzero" d="M100.378 37.097c0 .611-.306.917-.917.917s-.917-.306-.917-.917.306-.917.917-.917.917.306.917.917z"/>
  <path fill="#111" d="M97.26 42.233h10.272v-1.468H97.26z"/>
  <path fill="#111" fill-rule="nonzero" d="M100.195 41.499l1.467-2.935 1.467 2.935h-2.934z"/>
  <path fill="#111" fill-rule="nonzero" d="M101.662 41.499l2.935-5.136 2.935 5.136h-5.87zM116.336 35.996v5.87c0 .192.174.367.367.367h9.538c.235-.01.358-.132.366-.367v-5.8c0-.437 0-.437-.366-.437h-9.492c-.413 0-.413 0-.413.367zm.733.367h8.805v5.136h-8.805v-5.136zm-.137-.665l-.458.596 4.769 3.669.229.16.23-.16 4.768-3.669-.458-.596-4.54 3.485-4.54-3.485zM136.145 35.63c-.458 0-.74.32-.871.55a2.43 2.43 0 0 0-.253.71 7.959 7.959 0 0 0-.16 1.673c0 .59.05 1.178.16 1.675.055.248.121.458.253.688.131.23.413.572.871.572h2.935v-1.467h-2.59c-.017-.048-.031-.044-.047-.114-.073-.328-.114-.844-.114-1.353 0-.51.042-1.024.114-1.353.015-.064.031-.067.046-.114h2.591v-1.468h-2.935zm5.87 0v1.467h2.59c.016.047.032.05.047.114.073.329.114.843.114 1.353s-.042 1.024-.114 1.353c-.016.07-.03.066-.046.115h-2.591v1.467h2.935c.458 0 .74-.345.871-.573.132-.228.198-.44.253-.688.11-.498.16-1.083.16-1.674 0-.59-.05-1.177-.16-1.673a2.442 2.442 0 0 0-.253-.712c-.131-.23-.413-.55-.871-.55h-2.935zm-3.141 2.2c-.384.055-.696.442-.642.826.054.384.464.696.848.642h2.935c.387.007.734-.346.734-.734 0-.387-.347-.739-.734-.734h-2.935a.435.435 0 0 0-.138 0h-.068z"/>
  <path fill="#888" fill-rule="nonzero" d="M155.221 35.63c-.458 0-.74.32-.871.55a2.43 2.43 0 0 0-.253.71 7.959 7.959 0 0 0-.16 1.673c0 .59.05 1.178.16 1.675.055.248.121.458.253.688.131.23.413.572.871.572h2.935v-1.467h-2.59c-.017-.048-.031-.044-.047-.114-.073-.328-.114-.844-.114-1.353 0-.51.042-1.024.114-1.353.015-.064.031-.067.046-.114h2.591v-1.468h-2.935zm5.87 0v1.467h2.59c.016.047.032.05.047.114.073.329.114.843.114 1.353s-.042 1.024-.114 1.353c-.016.07-.03.066-.046.115h-2.591v1.467h2.935c.458 0 .74-.345.871-.573.132-.228.198-.44.253-.688.11-.498.16-1.083.16-1.674 0-.59-.05-1.177-.16-1.673a2.442 2.442 0 0 0-.253-.712c-.131-.23-.413-.55-.871-.55h-2.935z"/>
  <path fill="#ddd" d="M173.564 30.494v16.875c0 .978.734 1.467 2.201 1.467h73.37c1.467 0 2.201-.49 2.201-1.467V30.494c0-1.468-.734-2.202-2.201-2.202h-73.37c-1.467 0-2.2.734-2.2 2.202z"/>
  <path fill="#aaa" d="M249.135 48.836c1.467 0 2.201-.49 2.201-1.467 0 1.467-.734 2.2-2.201 2.2h-73.37c-1.467 0-2.2-.733-2.2-2.2 0 .978.733 1.467 2.2 1.467h73.37z"/>
  <path fill="#111" fill-rule="nonzero" d="M183.836 33.428c-1.419 0-2.63.501-3.632 1.504-1.003 1.003-1.504 2.214-1.504 3.632 0 1.418.5 2.629 1.504 3.632 1.003 1.003 2.213 1.504 3.632 1.504 1.418 0 2.628-.501 3.631-1.504 1.003-1.003 1.504-2.214 1.504-3.632 0-1.418-.5-2.629-1.504-3.632-1.003-1.003-2.213-1.504-3.631-1.504zm0 .734c1.215 0 2.253.43 3.113 1.29.859.859 1.289 1.896 1.289 3.112 0 1.216-.43 2.253-1.29 3.113-.86.86-1.897 1.29-3.112 1.29-1.216 0-2.254-.43-3.114-1.29-.859-.86-1.289-1.897-1.289-3.113s.43-2.253 1.29-3.113c.86-.86 1.897-1.289 3.113-1.289zm-1.468 2.201a.74.74 0 0 0-.734.734c0 .4.334.733.734.733a.74.74 0 0 0 .734-.733.74.74 0 0 0-.734-.734zm2.935 0a.74.74 0 0 0-.734.734c0 .4.333.733.734.733a.74.74 0 0 0 .734-.733.74.74 0 0 0-.734-.734zm-4.035 3.302s-.002.478.344.94c.345.46 1.042.894 2.224.894 1.182 0 1.879-.434 2.223-.894.345-.462.345-.94.345-.94h-.734s-.002.23-.206.504c-.205.275-.61.597-1.628.597-1.02 0-1.424-.323-1.629-.597-.204-.274-.206-.504-.206-.504h-.733zM198.51 34.162c-.734 0-1.468.734-1.468 1.467v5.87c0 .734.734 1.467 1.467 1.467h8.805c.733 0 1.467-.733 1.467-1.467v-5.87c0-.733-.734-1.467-1.467-1.467h-8.805zm2.934 2.201l4.402 2.201-4.402 2.201v-4.402zM222.062 37.83v.734h1.98v.734h-1.984v2.2h2.645v-.733h-1.98v-.733h1.98V37.83h-2.641zm-2.641 0v.734h.587v2.201h-.587v.734h1.98v-.734h-.66V37.83h-1.32zm-2.642-4.402V43.7h10.566V33.428h-1.321v1.468h-1.981v-1.468h-3.962v1.468H218.1v-1.468h-1.32zm.66 2.935h9.245v6.603h-9.244v-6.603zM241.065 32.695c-3.669 0-5.87 2.934-5.87 5.87 0 2.934 2.201 5.869 5.87 5.869 3.668 0 5.87-2.935 5.87-5.87s-2.202-5.87-5.87-5.87zm0 1.467c2.539 0 4.402 1.863 4.402 4.402 0 2.54-1.863 4.402-4.402 4.402s-4.403-1.863-4.403-4.402c0-2.54 1.864-4.402 4.403-4.402zm-.734.734v4.402l1.834 1.467 1.1-1.1-1.467-1.1v-3.67h-1.467z"/>
  <path fill="#ddd" d="M255.005 30.494v16.875c0 .978.733 1.467 2.2 1.467h35.218c1.467 0 2.201-.49 2.201-1.467V30.494c0-1.468-.734-2.202-2.2-2.202h-35.218c-1.468 0-2.201.734-2.201 2.202z"/>
  <path fill="#aaa" d="M292.423 48.836c1.467 0 2.201-.49 2.201-1.467 0 1.467-.734 2.2-2.2 2.2h-35.218c-1.467 0-2.2-.733-2.201-2.2 0 .978.734 1.467 2.2 1.467h35.218z"/>
  <path fill="#111" fill-rule="nonzero" d="M266.974 34.116c-.72 0-1.286.208-1.72.596-.435.388-.665.901-.665 1.537 0 .595.202 1.076.573 1.444.371.365.9.581 1.582.665v4.608h1.467v-8.07h.734v8.07h.734v-8.849l-2.705-.001zm-6.1 1.513v5.87l2.935-2.935-2.935-2.935zM282.404 34.163c-.72 0-1.308.208-1.743.596-.434.388-.642.9-.642 1.536 0 .595.18 1.076.55 1.444.372.365.9.582 1.582.665v4.562h1.468v-8.07h.734v8.07h.733v-8.804h-2.682zm6.35 1.466l-2.934 2.935 2.935 2.935v-5.87z"/>
  <path fill="#ddd" d="M298.293 30.494v16.875c0 .978.733 1.467 2.2 1.467h54.294c1.468 0 2.201-.49 2.201-1.467V30.494c0-1.468-.733-2.202-2.2-2.202h-54.294c-1.468 0-2.201.734-2.201 2.202z"/>
  <path fill="#aaa" d="M354.787 48.836c1.468 0 2.201-.49 2.201-1.467 0 1.467-.733 2.2-2.2 2.2h-54.294c-1.467 0-2.2-.733-2.201-2.2 0 .978.734 1.467 2.2 1.467h54.294z"/>
  <path fill="#111" fill-rule="nonzero" d="M305.63 33.428v2.201h-2.201v5.87h1.467v-4.402h7.337v4.402h1.467v-5.87h-2.2v-2.2h-5.87zm.733.734h4.403v1.467h-4.403v-1.467zm-.733 3.668v5.87h5.87v-5.87h-5.87zm.733.734h4.403v4.402h-4.403v-4.402zm.734.734v.734h2.935v-.734h-2.935zm0 1.467v.734h2.935v-.734h-2.935z"/>
  <path fill="#111" fill-rule="nonzero" d="M305.63 33.428v2.201h-2.201v5.87h1.467v-4.402h7.337v4.402h1.467v-5.87h-2.2v-2.2h-5.87zm.733.734h4.403v1.467h-4.403v-1.467zm-.733 3.668v5.87h5.87v-5.87h-5.87zm.733.734h4.403v4.402h-4.403v-4.402zm.734.734v.734h2.935v-.734h-2.935zm0 1.467v.734h2.935v-.734h-2.935zM323.238 37.83l1.284-1.284-1.467-1.467-1.284 1.284v-3.668h3.668l-1.283 1.284 1.467 1.467 1.284-1.284v3.668h-3.669zm6.604 6.604l1.284-1.284-1.468-1.468-1.284 1.284v-3.668h3.669l-1.284 1.284 1.467 1.467 1.284-1.284v3.669h-3.668zm-4.403 0l-1.283-1.284 1.467-1.468 1.284 1.284v-3.668h-3.669l1.284 1.284-1.467 1.467-1.284-1.284v3.669h3.668zm4.403-11.74l1.284 1.285-1.468 1.467-1.284-1.284v3.668h3.669l-1.284-1.284 1.467-1.467 1.284 1.284v-3.668h-3.668zM344.47 35.585l-2.89 3.345 2.89 3.349.78-.78-2.202-2.569 2.201-2.567-.78-.778zm4.494 0l-.78.78 2.201 2.57-2.201 2.565.78.78 2.888-3.345-2.888-3.35z"/>
  <g transform="matrix(.45856 0 0 -.45856 443.564 218.411)">
    <clipPath id="c">
      <path d="M0 5v16h16V8.2A4.647 4.647 0 0 0 14.778 5H0z"/>
    </clipPath>
    <g clip-path="url(#c)">
      <path fill-rule="nonzero" d="M14.656 15.844l-10-10 .688-.688 10 10-.688.688zm0-3l-7-7 .688-.688 7 7-.688.688zm0-3l-4-4 .688-.688 4 4-.688.688z"/>
    </g>
  </g>
  <g fill="#111" font-size="10.267">
    <text x="79.726" y="236.366" font-family="'Verdana',sans-serif" transform="translate(-71.61 -167.724)">
      A lightweight, open source, WYSIWYG BBCode and (X)HTML editor.
    </text>
    <text x="79.726" y="261.432" font-family="'Verdana-Bold','Verdana',sans-serif" font-weight="700" transform="translate(-71.61 -167.724)">
      Features:
    </text>
    <text x="109.726" y="281.037" font-family="'Verdana',sans-serif" transform="translate(-71.61 -167.724)">
      BBCode &amp; XHTML formats
    </text>
    <text x="109.726" y="296.309" font-family="'Verdana',sans-serif" transform="translate(-71.61 -167.724)">
      As you ty<tspan x="158.237" y="296.309">p</tspan>e emoticon conv<tspan x="249.393" y="296.309">e</tspan>rsion
    </text>
    <text x="109.726" y="311.581" font-family="'Verdana',sans-serif" transform="translate(-71.61 -167.724)">
      Dra<tspan x="128.183" y="311.581">g</tspan> &amp; drop ﬁle upload (via plugin)
    </text>
    <text x="109.726" y="326.853" font-family="'Verdana',sans-serif" transform="translate(-71.61 -167.724)">
      Multiple themes &amp; SVG icons sets
    </text>
    <text x="109.726" y="342.124" font-family="'Verdana',sans-serif" transform="translate(-71.61 -167.724)">
      and more!
    </text>
    <text x="79.726" y="369.396" font-family="'Verdana',sans-serif" transform="translate(-71.61 -167.724)">
      To try a live demo visit <a href="https://www.sceditor.com/" style="text-decoration:underline;color:rgb(0, 0, 238);fill:rgb(0, 0, 238);cursor:pointer">sceditor.com</a>
    </text>
  </g>
</svg>