<?xml version="1.0" encoding="UTF-8" standalone="no"?>
<!-- Generator: Adobe Illustrator 16.0.0, SVG Export Plug-In . SVG Version: 6.00 Build 0)  -->

<svg
   xmlns:dc="http://purl.org/dc/elements/1.1/"
   xmlns:cc="http://creativecommons.org/ns#"
   xmlns:rdf="http://www.w3.org/1999/02/22-rdf-syntax-ns#"
   xmlns:svg="http://www.w3.org/2000/svg"
   xmlns="http://www.w3.org/2000/svg"
   xmlns:sodipodi="http://sodipodi.sourceforge.net/DTD/sodipodi-0.dtd"
   xmlns:inkscape="http://www.inkscape.org/namespaces/inkscape"
   version="1.1"
   id="svg2"
   inkscape:export-filename="/home/samclarke/Desktop/new icons/bullet-list.png"
   inkscape:export-ydpi="90"
   inkscape:export-xdpi="90"
   sodipodi:docname="format3.svg"
   inkscape:version="0.48.4 r9939"
   x="0px"
   y="0px"
   width="16px"
   height="16px"
   viewBox="0 0 16 16"
   enable-background="new 0 0 16 16"
   xml:space="preserve"><metadata
     id="metadata10"><rdf:RDF><cc:Work
         rdf:about=""><dc:format>image/svg+xml</dc:format><dc:type
           rdf:resource="http://purl.org/dc/dcmitype/StillImage" /><dc:title>SCEditor</dc:title></cc:Work></rdf:RDF></metadata><title
     id="title3184">SCEditor</title><defs
     id="defs4"><inkscape:perspective
       id="perspective3023"
       inkscape:vp_z="16 : 8 : 1"
       inkscape:vp_y="0 : 1000 : 0"
       inkscape:vp_x="0 : 8 : 1"
       sodipodi:type="inkscape:persp3d"
       inkscape:persp3d-origin="8 : 5.3333333 : 1" /></defs><sodipodi:namedview
     id="base"
     showgrid="true"
     borderopacity="1.0"
     bordercolor="#666666"
     pagecolor="#ffffff"
     inkscape:cy="4.7687093"
     inkscape:cx="9.6926368"
     inkscape:zoom="32"
     inkscape:window-maximized="0"
     inkscape:snap-global="true"
     inkscape:snap-bbox="true"
     inkscape:window-y="24"
     inkscape:window-x="699"
     inkscape:window-height="1023"
     inkscape:window-width="1016"
     inkscape:current-layer="svg2"
     inkscape:document-units="px"
     inkscape:pageshadow="2"
     inkscape:pageopacity="0"><inkscape:grid
       originy="2.7755576e-17px"
       originx="-2.7755576e-17px"
       enabled="true"
       visible="true"
       type="xygrid"
       id="grid3041"
       spacingy="1px"
       spacingx="1px"
       empspacing="5"
       snapvisiblegridlinesonly="true" /><inkscape:grid
       type="xygrid"
       id="grid3014"
       empspacing="1"
       visible="true"
       enabled="true"
       snapvisiblegridlinesonly="true"
       color="#0000ff"
       opacity="0.0627451"
       empcolor="#0000ff"
       empopacity="0.0627451"
       originx="0.5px"
       originy="0.5px" /></sodipodi:namedview><g
     style="font-size:18px;font-style:normal;font-weight:normal;line-height:125%;letter-spacing:0px;word-spacing:0px;fill:#000000;fill-opacity:1;stroke:none;font-family:Sans"
     id="text3002" /><g
     style="font-size:18px;font-style:normal;font-weight:normal;line-height:125%;letter-spacing:0px;word-spacing:0px;fill:#000000;fill-opacity:1;stroke:none;font-family:Sans"
     id="text2996" /><path
     id="path3043"
     style="font-size:medium;font-style:normal;font-variant:normal;font-weight:normal;font-stretch:normal;text-indent:0;text-align:start;text-decoration:none;line-height:normal;letter-spacing:normal;word-spacing:normal;text-transform:none;direction:ltr;block-progression:tb;writing-mode:lr-tb;text-anchor:start;baseline-shift:baseline;color:#000000;fill:#000000;fill-opacity:1;stroke:none;stroke-width:1px;marker:none;visibility:visible;display:inline;overflow:visible;enable-background:accumulate;font-family:Sans;-inkscape-font-specification:Sans"
     d="m 10.5,2 0,1.5 1.5,0 c 0.235294,0 0.401489,-0.00853 0.5,0 0.0081,0.087843 0,0.2786006 0,0.5 l 0,2 1.5,0 0,-2.5625 C 14,3.2002864 13.990346,3.0281748 13.96875,2.84375 13.947154,2.6593252 13.901986,2.4238643 13.71875,2.25 13.535514,2.0761357 13.311712,2.0509347 13.125,2.03125 12.938288,2.0115653 12.75,2 12.5,2 z M 10.5,0 7.187,2.5 10.5,5 z M 11,5.187 13.5,8.5 16,5.187 z m -0.958,-0.339 -2.0299999,0 -3.234,8.456 c -0.1539998,0.392 -0.3360005,0.994 -0.854,1.022 l 0,0.518 2.744,0 0,-0.518 c -0.6439994,-0.168 -0.6579998,-0.462001 -0.434,-1.036 l 0.784,-2.086 3.4299999,0 0.854,2.086 c 0.238,0.573999 0.307999,0.924 -0.406,1.036 l 0,0.518 3.276,0 0,-0.518 C 13.738001,14.27 13.626,13.962 13.486,13.598 L 10.042,4.848 M 7.4240001,10 8.6840001,6.682 10,10 7.4240001,10 m -2.5121202,-9.02535984 -1.6298,0 L 0.68563999,7.7636 C 0.56200011,8.0783197 0.41587958,8.56164 0,8.58412 L 0,9 l 2.20304,0 0,-0.41588 C 1.6860005,8.4492401 1.6747601,8.2131996 1.8546,7.75236 l 0.62944,-1.6747599 2.7537999,0 0.68564,1.6747599 c 0.1910798,0.4608396 0.2472794,0.7418401 -0.32596,0.83176 l 0,0.41588 C 7.3271315,9.1370583 7.4352401,8.9980379 7.6769198,7.99964 L 4.9118799,0.97464016 m -2.10188,4.13631994 1.0116,-2.66388 1.05656,2.66388 -2.06816,0" /></svg>