<?xml version="1.0" encoding="UTF-8" standalone="no"?>
<!-- Generator: Adobe Illustrator 16.0.0, SVG Export Plug-In . SVG Version: 6.00 Build 0)  -->

<svg
   xmlns:dc="http://purl.org/dc/elements/1.1/"
   xmlns:cc="http://creativecommons.org/ns#"
   xmlns:rdf="http://www.w3.org/1999/02/22-rdf-syntax-ns#"
   xmlns:svg="http://www.w3.org/2000/svg"
   xmlns="http://www.w3.org/2000/svg"
   xmlns:sodipodi="http://sodipodi.sourceforge.net/DTD/sodipodi-0.dtd"
   xmlns:inkscape="http://www.inkscape.org/namespaces/inkscape"
   version="1.1"
   id="svg2"
   inkscape:export-filename="/home/samclarke/Desktop/new icons/bullet-list.png"
   inkscape:export-ydpi="90"
   inkscape:export-xdpi="90"
   sodipodi:docname="format2.svg"
   inkscape:version="0.48.4 r9939"
   x="0px"
   y="0px"
   width="16px"
   height="16px"
   viewBox="0 0 16 16"
   enable-background="new 0 0 16 16"
   xml:space="preserve"><metadata
     id="metadata10"><rdf:RDF><cc:Work
         rdf:about=""><dc:format>image/svg+xml</dc:format><dc:type
           rdf:resource="http://purl.org/dc/dcmitype/StillImage" /><dc:title>SCEditor</dc:title></cc:Work></rdf:RDF></metadata><title
     id="title3184">SCEditor</title><defs
     id="defs4"><inkscape:perspective
       id="perspective3023"
       inkscape:vp_z="16 : 8 : 1"
       inkscape:vp_y="0 : 1000 : 0"
       inkscape:vp_x="0 : 8 : 1"
       sodipodi:type="inkscape:persp3d"
       inkscape:persp3d-origin="8 : 5.3333333 : 1" /></defs><sodipodi:namedview
     id="base"
     showgrid="true"
     borderopacity="1.0"
     bordercolor="#666666"
     pagecolor="#ffffff"
     inkscape:cy="6.8791302"
     inkscape:cx="10.696714"
     inkscape:zoom="32"
     inkscape:window-maximized="0"
     inkscape:snap-global="true"
     inkscape:snap-bbox="true"
     inkscape:window-y="24"
     inkscape:window-x="921"
     inkscape:window-height="1024"
     inkscape:window-width="1019"
     inkscape:current-layer="svg2"
     inkscape:document-units="px"
     inkscape:pageshadow="2"
     inkscape:pageopacity="0"><inkscape:grid
       originy="-2.7755576e-17px"
       originx="-2.7755576e-17px"
       enabled="true"
       visible="true"
       type="xygrid"
       id="grid3041"
       spacingy="1px"
       spacingx="1px"
       empspacing="5"
       snapvisiblegridlinesonly="true" /></sodipodi:namedview><path
     id="path3016"
     style="fill:#000000;stroke:none"
     d="m 5,8 3,0 0,7 -3,0 z m 7,-6 3,0 0,6 -9,0 0,-1 8,0 0,-4 -2,0 z M 1,1 1,1.5 1,5.5 1,6 1.5,6 11.5,6 12,6 12,5.5 12,1.5 12,1 11.5,1 1.5,1 z m 1,1 9,0 0,1 -9,0 z" /><path
     d="m 5,8 3,0 0,7 -3,0 z m 7,-6 3,0 0,6 -9,0 0,-1 8,0 0,-4 -2,0 z M 1,1 1,6 12,6 12,1 z m 1,1 9,0 0,1 -9,0 z"
     style="fill:#000000;stroke:none"
     id="path3038"
     inkscape:connector-curvature="0"
     sodipodi:nodetypes="cccccccccccccccccccccccc" /></svg>