<?xml version="1.0" encoding="UTF-8" standalone="no"?>
<!-- Generator: Adobe Illustrator 16.0.0, SVG Export Plug-In . SVG Version: 6.00 Build 0)  -->

<svg
   xmlns:dc="http://purl.org/dc/elements/1.1/"
   xmlns:cc="http://creativecommons.org/ns#"
   xmlns:rdf="http://www.w3.org/1999/02/22-rdf-syntax-ns#"
   xmlns:svg="http://www.w3.org/2000/svg"
   xmlns="http://www.w3.org/2000/svg"
   xmlns:sodipodi="http://sodipodi.sourceforge.net/DTD/sodipodi-0.dtd"
   xmlns:inkscape="http://www.inkscape.org/namespaces/inkscape"
   version="1.1"
   id="svg2"
   inkscape:export-filename="/home/samclarke/Desktop/new icons/bullet-list.png"
   inkscape:export-ydpi="90"
   inkscape:export-xdpi="90"
   sodipodi:docname="format.svg"
   inkscape:version="0.48.4 r9939"
   x="0px"
   y="0px"
   width="16px"
   height="16px"
   viewBox="0 0 16 16"
   enable-background="new 0 0 16 16"
   xml:space="preserve"><metadata
     id="metadata10"><rdf:RDF><cc:Work
         rdf:about=""><dc:format>image/svg+xml</dc:format><dc:type
           rdf:resource="http://purl.org/dc/dcmitype/StillImage" /><dc:title>SCEditor</dc:title></cc:Work></rdf:RDF></metadata><title
     id="title3184">SCEditor</title><defs
     id="defs4"><inkscape:perspective
       id="perspective3023"
       inkscape:vp_z="16 : 8 : 1"
       inkscape:vp_y="0 : 1000 : 0"
       inkscape:vp_x="0 : 8 : 1"
       sodipodi:type="inkscape:persp3d"
       inkscape:persp3d-origin="8 : 5.3333333 : 1" /></defs><sodipodi:namedview
     id="base"
     showgrid="true"
     borderopacity="1.0"
     bordercolor="#666666"
     pagecolor="#ffffff"
     inkscape:cy="7.3773343"
     inkscape:cx="6.3773562"
     inkscape:zoom="32"
     inkscape:window-maximized="0"
     inkscape:snap-global="true"
     inkscape:snap-bbox="true"
     inkscape:window-y="24"
     inkscape:window-x="695"
     inkscape:window-height="1023"
     inkscape:window-width="1019"
     inkscape:current-layer="svg2"
     inkscape:document-units="px"
     inkscape:pageshadow="2"
     inkscape:pageopacity="0"><inkscape:grid
       originy="2.7755576e-17px"
       originx="-2.7755576e-17px"
       enabled="true"
       visible="true"
       type="xygrid"
       id="grid3041"
       spacingy="1px"
       spacingx="1px"
       empspacing="5"
       snapvisiblegridlinesonly="true" /><inkscape:grid
       type="xygrid"
       id="grid3014"
       empspacing="1"
       visible="true"
       enabled="true"
       snapvisiblegridlinesonly="true"
       color="#0000ff"
       opacity="0.0627451"
       empcolor="#0000ff"
       empopacity="0.0627451"
       originx="0.5px"
       originy="0.5px" /></sodipodi:namedview><g
     id="g2990"
     style="font-size:18px;font-style:normal;font-weight:normal;line-height:125%;letter-spacing:0px;word-spacing:0px;fill:#000000;fill-opacity:1;stroke:none;font-family:Sans"
     transform="translate(0,-17)" /><path
     id="path2995"
     style="fill:#000000;fill-opacity:1;stroke:none"
     d="m 7.5,12.714017 c 0,0.828427 -0.6715729,1.5 -1.5,1.5 -1.0358562,0.598052 -2.7522339,0.08024 -3,0.03125 0,-0.142074 1.1745987,-0.468259 1.5,-1.03125 C 4.7150565,12.841938 4.6129382,12.135216 4.6515679,12.056181 4.8953101,11.557494 5.4075432,11.214017 6,11.214017 c 0.8284271,0 1.5,0.671573 1.5,1.5 z m 6,-9.0000006 1.414213,1.414214 L 8.4142136,11.628231 7,10.214016 z m -6.22,-2.4240001 -2.32,0 -3.696,9.6640007 c -0.1759998,0.448 -0.3840006,1.136 -0.97600001,1.168 l 0,0.592 3.13600001,0 0,-0.592 c -0.7359993,-0.192 -0.7519998,-0.528001 -0.496,-1.184 l 0.896,-2.3840006 3.92,0 0.976,2.3840006 c 0.2719997,0.655999 0.3519992,1.056 -0.464,1.184 l 0,0.592 3.744,0 0,-0.592 c -0.496,-0.064 -0.624,-0.416 -0.784,-0.832 L 7.28,1.2900163 m -2.992,5.8880001 1.44,-3.792 1.504,3.792 -2.944,0 M 7.5,12.714017 c 0,0.828427 -0.6715729,1.5 -1.5,1.5 -1.0358562,0.598052 -2.7522339,0.08024 -3,0.03125 0,-0.142074 1.1745987,-0.468259 1.5,-1.03125 C 4.7150565,12.841938 4.6129382,12.135216 4.6515679,12.056181 4.8953101,11.557494 5.4075432,11.214017 6,11.214017 c 0.8284271,0 1.5,0.671573 1.5,1.5 z m 6,-9.0000006 1.414213,1.414214 L 8.4142136,11.628231 7,10.214016 z"
     inkscape:connector-curvature="0" /></svg>