<?xml version="1.0" encoding="utf-8"?>
<!-- Generator: Adobe Illustrator 16.0.0, SVG Export Plug-In . SVG Version: 6.00 Build 0)  -->
<!DOCTYPE svg PUBLIC "-//W3C//DTD SVG 1.1//EN" "http://www.w3.org/Graphics/SVG/1.1/DTD/svg11.dtd">
<svg version="1.1"
	 id="svg2" sodipodi:docname="bold.svg" inkscape:export-ydpi="90" inkscape:export-xdpi="90" inkscape:export-filename="/home/samclarke/Desktop/new icons/bullet-list.png" inkscape:version="0.48.3.1 r9886" xmlns:dc="http://purl.org/dc/elements/1.1/" xmlns:cc="http://creativecommons.org/ns#" xmlns:rdf="http://www.w3.org/1999/02/22-rdf-syntax-ns#" xmlns:svg="http://www.w3.org/2000/svg" xmlns:sodipodi="http://sodipodi.sourceforge.net/DTD/sodipodi-0.dtd" xmlns:inkscape="http://www.inkscape.org/namespaces/inkscape"
	 xmlns="http://www.w3.org/2000/svg" xmlns:xlink="http://www.w3.org/1999/xlink" x="0px" y="0px" width="16px" height="16px"
	 viewBox="0 0 16 16" enable-background="new 0 0 16 16" xml:space="preserve">
<title  id="title3184">SCEditor</title>
<defs>
	
	
		<inkscape:perspective  inkscape:persp3d-origin="8 : 5.3333333 : 1" inkscape:vp_z="16 : 8 : 1" inkscape:vp_y="0 : 1000 : 0" inkscape:vp_x="0 : 8 : 1" sodipodi:type="inkscape:persp3d" id="perspective3023">
		</inkscape:perspective>
</defs>
<sodipodi:namedview  inkscape:window-maximized="0" inkscape:snap-global="true" inkscape:snap-bbox="true" inkscape:window-y="194" inkscape:window-x="658" inkscape:window-height="667" inkscape:window-width="907" inkscape:current-layer="layer1" inkscape:document-units="px" inkscape:pageshadow="2" inkscape:pageopacity="0" showgrid="true" borderopacity="1.0" bordercolor="#666666" pagecolor="#ffffff" inkscape:cy="7.9268595" inkscape:cx="4.5766651" inkscape:zoom="22.627417" id="base">
	
		<inkscape:grid  snapvisiblegridlinesonly="true" spacingy="1px" spacingx="1px" empspacing="5" id="grid3041" visible="true" type="xygrid" originy="0.5px" originx="2.7755576e-17px" enabled="true">
		</inkscape:grid>
</sodipodi:namedview>
<path id="layer1" transform="translate(0,-1036.3622)" inkscape:groupmode="layer" inkscape:label="Layer 1" d="M6.188,1038.706
	c-0.267,0.011-0.535,0.042-0.813,0.063s-0.577,0.051-0.844,0.094c-0.267,0.032-0.515,0.051-0.75,0.094v10.781
	c0.448,0.117,0.997,0.187,1.594,0.219c0.597,0.043,1.163,0.063,1.75,0.063c1.717,0,3.012-0.278,3.844-0.844
	c0.832-0.576,1.25-1.422,1.25-2.563c0-0.672-0.18-1.25-0.5-1.688s-0.797-0.745-1.469-0.969c0.447-0.224,0.786-0.533,1.031-0.906
	c0.256-0.373,0.375-0.821,0.375-1.344c0-0.565-0.109-1.054-0.344-1.438s-0.573-0.671-1-0.906c-0.416-0.235-0.893-0.404-1.469-0.5
	c-0.576-0.107-1.203-0.156-1.875-0.156C6.724,1038.706,6.465,1038.695,6.188,1038.706z M7.219,1040.331
	c0.725,0,1.302,0.12,1.75,0.344c0.459,0.224,0.688,0.623,0.688,1.156c0,0.565-0.219,0.932-0.656,1.156
	c-0.438,0.213-1.044,0.344-1.813,0.344H5.781v-2.906c0.171-0.021,0.359-0.052,0.594-0.063
	C6.62,1040.356,6.909,1040.331,7.219,1040.331z M5.781,1044.893h1.781c0.811,0,1.447,0.13,1.906,0.375s0.688,0.684,0.688,1.313
	c0,0.352-0.09,0.65-0.25,0.875c-0.149,0.225-0.358,0.393-0.625,0.531c-0.256,0.128-0.574,0.229-0.938,0.281
	c-0.352,0.053-0.74,0.063-1.156,0.063c-0.213,0-0.432,0.011-0.688,0s-0.495-0.041-0.719-0.063V1044.893z"/>
</svg>
