<?xml version="1.0" encoding="utf-8"?>
<!-- Generator: Adobe Illustrator 16.0.0, SVG Export Plug-In . SVG Version: 6.00 Build 0)  -->
<!DOCTYPE svg PUBLIC "-//W3C//DTD SVG 1.1//EN" "http://www.w3.org/Graphics/SVG/1.1/DTD/svg11.dtd">
<svg version="1.1"
	 id="svg2" xmlns:dc="http://purl.org/dc/elements/1.1/" xmlns:cc="http://creativecommons.org/ns#" xmlns:rdf="http://www.w3.org/1999/02/22-rdf-syntax-ns#" xmlns:svg="http://www.w3.org/2000/svg" xmlns:sodipodi="http://sodipodi.sourceforge.net/DTD/sodipodi-0.dtd" xmlns:inkscape="http://www.inkscape.org/namespaces/inkscape" inkscape:export-filename="/home/samclarke/Desktop/new icons/bullet-list.png" inkscape:version="0.48.3.1 r9886" inkscape:export-xdpi="90" inkscape:export-ydpi="90" sodipodi:docname="bulletlist.svg"
	 xmlns="http://www.w3.org/2000/svg" xmlns:xlink="http://www.w3.org/1999/xlink" x="0px" y="0px" width="16px" height="16px"
	 viewBox="0 0 16 16" enable-background="new 0 0 16 16" xml:space="preserve">
<title  id="title3184">SCEditor</title>
<defs>
	
	
		<inkscape:perspective  id="perspective3023" inkscape:vp_x="0 : 8 : 1" inkscape:vp_y="0 : 1000 : 0" inkscape:vp_z="16 : 8 : 1" sodipodi:type="inkscape:persp3d" inkscape:persp3d-origin="8 : 5.3333333 : 1">
		</inkscape:perspective>
</defs>
<sodipodi:namedview  id="base" inkscape:zoom="32" inkscape:cx="4.9362326" inkscape:cy="6.1109359" pagecolor="#ffffff" bordercolor="#666666" borderopacity="1.0" showgrid="true" inkscape:window-maximized="0" inkscape:pageopacity="0" inkscape:pageshadow="2" inkscape:document-units="px" inkscape:current-layer="layer1" inkscape:window-width="866" inkscape:window-height="425" inkscape:window-x="0" inkscape:window-y="27" inkscape:snap-bbox="true" inkscape:snap-global="true">
	
		<inkscape:grid  enabled="true" originx="-2.7755576e-17px" originy="2.7755576e-17px" type="xygrid" visible="true" id="grid3041" empspacing="5" spacingx="1px" spacingy="1px" snapvisiblegridlinesonly="true">
		</inkscape:grid>
</sodipodi:namedview>
<path d="M2.5,1C1.671,1,1,1.671,1,2.5S1.671,4,2.5,4S4,3.329,4,2.5S3.329,1,2.5,1z M6,2v1h9V2H6z M2.5,6C1.671,6,1,6.671,1,7.5
	S1.671,9,2.5,9S4,8.329,4,7.5S3.329,6,2.5,6z M6,7v1h9V7H6z M2.5,11C1.671,11,1,11.672,1,12.5S1.671,14,2.5,14S4,13.328,4,12.5
	S3.329,11,2.5,11z M6,12v1h9v-1H6z"/>
</svg>
