<svg width="16px" height="16px" viewBox="0 0 16 16"
     xmlns="http://www.w3.org/2000/svg" version="1.1">
   <path
     d="M 7,6 4,9 7,12 7,10.5 5.5,9 7,7.5 z M 9,6 9,7.5 10.5,9 9,10.5 9,12 12,9 z M 2.40625,1 C 2.1770488,1.0437333 1.9958883,1.2667 2,1.5 l 0,13 c 2.62e-5,0.261792 0.2382078,0.499974 0.5,0.5 l 11,0 c 0.261792,-2.6e-5 0.499974,-0.238208 0.5,-0.5 1.3e-5,-3.521968 0,-7.0945484 0,-10.125 0.0024,-0.1024066 -0.130209,-0.1927095 -0.15625,-0.21875 l -3,-3 C 10.755114,1.0624336 10.628965,1.0050929 10.5,1 z M 3,2 l 7,0 0,2.5 c 2.6e-5,0.2617922 0.238208,0.4999738 0.5,0.5 L 13,5 13,14 3,14 z M 11,2.6875 12.3125,4 11,4 z" />
</svg>