<?xml version="1.0" encoding="UTF-8" standalone="no"?>
<!-- Generator: Adobe Illustrator 16.0.0, SVG Export Plug-In . SVG Version: 6.00 Build 0)  -->

<svg
   xmlns:dc="http://purl.org/dc/elements/1.1/"
   xmlns:cc="http://creativecommons.org/ns#"
   xmlns:rdf="http://www.w3.org/1999/02/22-rdf-syntax-ns#"
   xmlns:svg="http://www.w3.org/2000/svg"
   xmlns="http://www.w3.org/2000/svg"
   xmlns:sodipodi="http://sodipodi.sourceforge.net/DTD/sodipodi-0.dtd"
   xmlns:inkscape="http://www.inkscape.org/namespaces/inkscape"
   version="1.1"
   id="svg2"
   inkscape:export-filename="/home/samclarke/Desktop/new icons/bullet-list.png"
   inkscape:export-ydpi="90"
   inkscape:export-xdpi="90"
   sodipodi:docname="code.svg"
   inkscape:version="0.48.4 r9939"
   x="0px"
   y="0px"
   width="16px"
   height="16px"
   viewBox="0 0 16 16"
   enable-background="new 0 0 16 16"
   xml:space="preserve"><metadata
     id="metadata10"><rdf:RDF><cc:Work
         rdf:about=""><dc:format>image/svg+xml</dc:format><dc:type
           rdf:resource="http://purl.org/dc/dcmitype/StillImage" /><dc:title>SCEditor</dc:title></cc:Work></rdf:RDF></metadata><title
     id="title3184">SCEditor</title><defs
     id="defs4"><inkscape:perspective
       id="perspective3023"
       inkscape:vp_z="16 : 8 : 1"
       inkscape:vp_y="0 : 1000 : 0"
       inkscape:vp_x="0 : 8 : 1"
       sodipodi:type="inkscape:persp3d"
       inkscape:persp3d-origin="8 : 5.3333333 : 1" /></defs><sodipodi:namedview
     id="base"
     showgrid="true"
     borderopacity="1.0"
     bordercolor="#666666"
     pagecolor="#ffffff"
     inkscape:cy="9.7437878"
     inkscape:cx="6.603824"
     inkscape:zoom="32"
     inkscape:window-maximized="0"
     inkscape:snap-global="true"
     inkscape:snap-bbox="true"
     inkscape:window-y="128"
     inkscape:window-x="674"
     inkscape:window-height="879"
     inkscape:window-width="1159"
     inkscape:current-layer="svg2"
     inkscape:document-units="px"
     inkscape:pageshadow="2"
     inkscape:pageopacity="0"><inkscape:grid
       originy="-2.7755576e-17px"
       originx="2.7755576e-17px"
       enabled="true"
       visible="true"
       type="xygrid"
       id="grid3041"
       spacingy="1px"
       spacingx="1px"
       empspacing="5"
       snapvisiblegridlinesonly="true" /></sodipodi:namedview><path
     id="layer1-1"
     style="fill:#000000"
     d="M 7,6 4,9 7,12 7,10.5 5.5,9 7,7.5 z M 9,6 9,7.5 10.5,9 9,10.5 9,12 12,9 z M 2.40625,1 C 2.1770488,1.0437333 1.9958883,1.2667 2,1.5 l 0,13 c 2.62e-5,0.261792 0.2382078,0.499974 0.5,0.5 l 11,0 c 0.261792,-2.6e-5 0.499974,-0.238208 0.5,-0.5 1.3e-5,-3.521968 0,-7.0945484 0,-10.125 0.0024,-0.1024066 -0.130209,-0.1927095 -0.15625,-0.21875 l -3,-3 C 10.755114,1.0624336 10.628965,1.0050929 10.5,1 z M 3,2 l 7,0 0,2.5 c 2.6e-5,0.2617922 0.238208,0.4999738 0.5,0.5 L 13,5 13,14 3,14 z M 11,2.6875 12.3125,4 11,4 z"
     inkscape:connector-curvature="0"
     sodipodi:nodetypes="cccccccccccccccccccccsccccccccccccccc" /></svg>