<?xml version="1.0" encoding="utf-8"?>
<!-- Generator: Adobe Illustrator 16.0.0, SVG Export Plug-In . SVG Version: 6.00 Build 0)  -->
<!DOCTYPE svg PUBLIC "-//W3C//DTD SVG 1.1//EN" "http://www.w3.org/Graphics/SVG/1.1/DTD/svg11.dtd">
<svg version="1.1"
	 id="svg2" sodipodi:docname="code.svg" inkscape:export-ydpi="90" inkscape:export-xdpi="90" inkscape:export-filename="/home/samclarke/Desktop/new icons/bullet-list.png" inkscape:version="0.48.3.1 r9886" xmlns:dc="http://purl.org/dc/elements/1.1/" xmlns:cc="http://creativecommons.org/ns#" xmlns:rdf="http://www.w3.org/1999/02/22-rdf-syntax-ns#" xmlns:svg="http://www.w3.org/2000/svg" xmlns:sodipodi="http://sodipodi.sourceforge.net/DTD/sodipodi-0.dtd" xmlns:inkscape="http://www.inkscape.org/namespaces/inkscape"
	 xmlns="http://www.w3.org/2000/svg" xmlns:xlink="http://www.w3.org/1999/xlink" x="0px" y="0px" width="16px" height="16px"
	 viewBox="0 0 16 16" enable-background="new 0 0 16 16" xml:space="preserve">
<title  id="title3184">SCEditor</title>
<defs>
	
	
		<inkscape:perspective  inkscape:persp3d-origin="8 : 5.3333333 : 1" inkscape:vp_z="16 : 8 : 1" inkscape:vp_y="0 : 1000 : 0" inkscape:vp_x="0 : 8 : 1" sodipodi:type="inkscape:persp3d" id="perspective3023">
		</inkscape:perspective>
</defs>
<sodipodi:namedview  inkscape:window-maximized="1" inkscape:snap-global="true" inkscape:snap-bbox="true" inkscape:window-y="27" inkscape:window-x="0" inkscape:window-height="1025" inkscape:window-width="1920" inkscape:current-layer="layer1" inkscape:document-units="px" inkscape:pageshadow="2" inkscape:pageopacity="0" showgrid="true" borderopacity="1.0" bordercolor="#666666" pagecolor="#ffffff" inkscape:cy="6.278048" inkscape:cx="-5.1193609" inkscape:zoom="32" id="base">
	
		<inkscape:grid  snapvisiblegridlinesonly="true" spacingy="1px" spacingx="1px" empspacing="5" id="grid3041" visible="true" type="xygrid" originy="0.5px" originx="2.7755576e-17px" enabled="true">
		</inkscape:grid>
</sodipodi:namedview>
<path id="layer1" transform="translate(0,-1036.3622)" inkscape:groupmode="layer" inkscape:label="Layer 1" d="M2.844,1037.362
	c-0.214,0.07-0.355,0.275-0.344,0.5v13c0,0.276,0.224,0.5,0.5,0.5h10c0.276,0,0.5-0.224,0.5-0.5v-9.938
	c0.002-0.021,0.002-0.042,0-0.063c0-0.01,0-0.021,0-0.031c0.003-0.031,0.003-0.063,0-0.094c-0.009-0.021-0.02-0.042-0.031-0.063
	c-0.018-0.034-0.038-0.065-0.063-0.094c0-0.01,0-0.021,0-0.031c-0.02-0.022-0.04-0.043-0.063-0.063
	c-0.037-0.038-0.078-0.069-0.125-0.094l-2.75-2.75c-0.051-0.111-0.139-0.2-0.25-0.25c-0.01,0-0.021,0-0.031,0
	c-0.01-0.011-0.021-0.021-0.031-0.031c-0.021-0.001-0.041-0.001-0.063,0c-0.031-0.003-0.063-0.003-0.094,0H9.844H3
	C2.948,1037.354,2.896,1037.354,2.844,1037.362z M3.5,1038.362h6v2.5c0,0.01,0,0.021,0,0.031c-0.002,0.021-0.002,0.042,0,0.063
	c0.01,0.011,0.021,0.021,0.031,0.031c0.018,0.068,0.05,0.132,0.094,0.188c0.092,0.114,0.229,0.183,0.375,0.188h2.5v9h-9V1038.362z
	 M10.5,1039.05l1.313,1.313H10.5V1039.05z M6.563,1042.393l-2,2l-0.438,0.469l0.438,0.438l2,2l0.875-0.906l-1.563-1.531l1.563-1.563
	L6.563,1042.393z M9.438,1042.393l-0.875,0.906l1.563,1.563l-1.563,1.531l0.875,0.906l2-2l0.438-0.438l-0.438-0.469L9.438,1042.393z
	"/>
</svg>
