<?xml version="1.0" encoding="utf-8"?>
<!-- Generator: Adobe Illustrator 16.0.0, SVG Export Plug-In . SVG Version: 6.00 Build 0)  -->
<!DOCTYPE svg PUBLIC "-//W3C//DTD SVG 1.1//EN" "http://www.w3.org/Graphics/SVG/1.1/DTD/svg11.dtd">
<svg version="1.1"
	 id="svg2" inkscape:export-filename="/home/samclarke/Desktop/new icons/bullet-list.png" xmlns:dc="http://purl.org/dc/elements/1.1/" xmlns:cc="http://creativecommons.org/ns#" xmlns:rdf="http://www.w3.org/1999/02/22-rdf-syntax-ns#" xmlns:svg="http://www.w3.org/2000/svg" xmlns:sodipodi="http://sodipodi.sourceforge.net/DTD/sodipodi-0.dtd" xmlns:inkscape="http://www.inkscape.org/namespaces/inkscape" inkscape:version="0.48.4 r9939" sodipodi:docname="copytmp.svg" inkscape:export-xdpi="90" inkscape:export-ydpi="90"
	 xmlns="http://www.w3.org/2000/svg" xmlns:xlink="http://www.w3.org/1999/xlink" x="0px" y="0px" width="16px" height="16px"
	 viewBox="0 0 16 16" enable-background="new 0 0 16 16" xml:space="preserve">
<title  id="title3184">SCEditor</title>
<defs>
	
	
		<inkscape:perspective  id="perspective3023" sodipodi:type="inkscape:persp3d" inkscape:vp_x="0 : 8 : 1" inkscape:vp_y="0 : 1000 : 0" inkscape:vp_z="16 : 8 : 1" inkscape:persp3d-origin="8 : 5.3333333 : 1">
		</inkscape:perspective>
</defs>
<sodipodi:namedview  id="base" inkscape:window-maximized="1" inkscape:zoom="22.627417" inkscape:cx="11.349829" inkscape:cy="6.7535705" pagecolor="#ffffff" bordercolor="#666666" borderopacity="1.0" showgrid="true" inkscape:pageopacity="0" inkscape:pageshadow="2" inkscape:document-units="px" inkscape:current-layer="svg2" inkscape:window-width="1855" inkscape:window-height="1056" inkscape:window-x="65" inkscape:window-y="24" inkscape:snap-bbox="true" inkscape:snap-global="true">
	
		<inkscape:grid  visible="true" enabled="true" originx="2.7755576e-17px" originy="2.7755576e-17px" id="grid3041" type="xygrid" empspacing="5" spacingx="1px" spacingy="1px" snapvisiblegridlinesonly="true">
		</inkscape:grid>
</sodipodi:namedview>
<path d="M6.404,5.002c-0.239,0.046-0.411,0.257-0.406,0.5v10c0,0.276,0.224,0.5,0.5,0.5h8c0.275,0,0.5-0.224,0.5-0.5V8.596
	c0.003-0.031,0.003-0.063,0-0.094c0.001-0.021,0.001-0.042,0-0.063c0-0.021,0-0.042,0-0.063c-0.01-0.021-0.02-0.042-0.031-0.063
	c0-0.01,0-0.021,0-0.031c-0.027-0.035-0.059-0.066-0.094-0.094c-0.01-0.011-0.021-0.021-0.031-0.031l-2.875-2.844
	c-0.031-0.06-0.073-0.113-0.125-0.156c-0.09-0.095-0.213-0.151-0.344-0.156h-5C6.467,4.999,6.435,4.999,6.404,5.002
	C6.165,5.048,6.435,4.999,6.404,5.002z M6.998,6.002h4v2.5c0,0.276,0.224,0.5,0.5,0.5h2.5v6h-7V6.002z M11.998,6.689l1.313,1.313
	h-1.313V6.689z M1.406,0.002C1.177,0.046,0.996,0.269,1,0.502v10c0,0.262,0.238,0.5,0.5,0.5H7V6l3-0.063V3.596
	c0.003-0.031,0.003-0.063,0-0.094c0.002-0.021,0.002-0.042,0-0.063c0-0.021,0-0.042,0-0.063C9.991,3.355,9.98,3.335,9.969,3.314
	c0-0.01,0-0.021,0-0.031C9.941,3.248,9.91,3.217,9.875,3.189c-0.01-0.011-0.021-0.021-0.031-0.031L6.969,0.314
	c-0.03-0.06-0.073-0.113-0.125-0.156C6.755,0.064,6.629,0.007,6.5,0.002h-5C1.469-0.001,1.438-0.001,1.406,0.002
	C1.177,0.046,1.438-0.001,1.406,0.002z M2,1.002h4v2.5c0,0.262,0.238,0.5,0.5,0.5H9v1.029L7,5L6,6v4l-4,0.002V1.002z M7,1.689
	l1.313,1.313H7V1.689z"/>
</svg>
