<?xml version="1.0" encoding="utf-8"?>
<!-- Generator: Adobe Illustrator 16.0.0, SVG Export Plug-In . SVG Version: 6.00 Build 0)  -->
<!DOCTYPE svg PUBLIC "-//W3C//DTD SVG 1.1//EN" "http://www.w3.org/Graphics/SVG/1.1/DTD/svg11.dtd">
<svg version="1.1"
	 id="svg2" sodipodi:docname="cut.svg" inkscape:export-ydpi="90" inkscape:export-xdpi="90" inkscape:export-filename="/home/samclarke/Desktop/new icons/bullet-list.png" inkscape:version="0.48.3.1 r9886" xmlns:dc="http://purl.org/dc/elements/1.1/" xmlns:cc="http://creativecommons.org/ns#" xmlns:rdf="http://www.w3.org/1999/02/22-rdf-syntax-ns#" xmlns:svg="http://www.w3.org/2000/svg" xmlns:sodipodi="http://sodipodi.sourceforge.net/DTD/sodipodi-0.dtd" xmlns:inkscape="http://www.inkscape.org/namespaces/inkscape"
	 xmlns="http://www.w3.org/2000/svg" xmlns:xlink="http://www.w3.org/1999/xlink" x="0px" y="0px" width="16px" height="16px"
	 viewBox="0 0 16 16" enable-background="new 0 0 16 16" xml:space="preserve">
<title  id="title3184">SCEditor</title>
<defs>
	
	
		<inkscape:perspective  inkscape:persp3d-origin="8 : 5.3333333 : 1" inkscape:vp_z="16 : 8 : 1" inkscape:vp_y="0 : 1000 : 0" inkscape:vp_x="0 : 8 : 1" sodipodi:type="inkscape:persp3d" id="perspective3023">
		</inkscape:perspective>
</defs>
<sodipodi:namedview  inkscape:window-maximized="0" inkscape:snap-global="true" inkscape:snap-bbox="true" inkscape:window-y="142" inkscape:window-x="1102" inkscape:window-height="717" inkscape:window-width="816" inkscape:current-layer="layer1" inkscape:document-units="px" inkscape:pageshadow="2" inkscape:pageopacity="0" showgrid="true" borderopacity="1.0" bordercolor="#666666" pagecolor="#ffffff" inkscape:cy="6.4499104" inkscape:cx="7.7071706" inkscape:zoom="22.627417" id="base">
	
		<inkscape:grid  snapvisiblegridlinesonly="true" spacingy="1px" spacingx="1px" empspacing="5" id="grid3041" visible="true" type="xygrid" originy="0.5px" originx="2.7755576e-17px" enabled="true">
		</inkscape:grid>
</sodipodi:namedview>
<path id="layer1" transform="translate(0,-1036.3622)" inkscape:groupmode="layer" inkscape:label="Layer 1" d="M3,1036.862
	c0,2.936,3.774,7.731,3.938,7.938l-1.813,2.844c-0.34-0.174-0.719-0.281-1.125-0.281c-1.375,0-2.5,1.125-2.5,2.5s1.125,2.5,2.5,2.5
	s2.5-1.125,2.5-2.5c0-0.444-0.138-0.856-0.344-1.219L8,1046.206l1.844,2.438c-0.205,0.362-0.344,0.774-0.344,1.219
	c0,1.375,1.125,2.5,2.5,2.5s2.5-1.125,2.5-2.5s-1.125-2.5-2.5-2.5c-0.406,0-0.785,0.107-1.125,0.281l-1.813-2.844
	c0.164-0.206,3.938-5.001,3.938-7.938h-1l-4,6.281l-4-6.281H3z M4,1048.362c0.834,0,1.5,0.666,1.5,1.5s-0.666,1.5-1.5,1.5
	s-1.5-0.666-1.5-1.5S3.166,1048.362,4,1048.362z M12,1048.362c0.834,0,1.5,0.666,1.5,1.5s-0.666,1.5-1.5,1.5s-1.5-0.666-1.5-1.5
	S11.166,1048.362,12,1048.362z"/>
</svg>
