<svg width="16px" height="16px" viewBox="0 0 16 16"
     xmlns="http://www.w3.org/2000/svg" version="1.1">
  <path transform="translate(0,-1036.3622)" d="M3,1036.862
	c0,2.936,3.774,7.731,3.938,7.938l-1.813,2.844c-0.34-0.174-0.719-0.281-1.125-0.281c-1.375,0-2.5,1.125-2.5,2.5s1.125,2.5,2.5,2.5
	s2.5-1.125,2.5-2.5c0-0.444-0.138-0.856-0.344-1.219L8,1046.206l1.844,2.438c-0.205,0.362-0.344,0.774-0.344,1.219
	c0,1.375,1.125,2.5,2.5,2.5s2.5-1.125,2.5-2.5s-1.125-2.5-2.5-2.5c-0.406,0-0.785,0.107-1.125,0.281l-1.813-2.844
	c0.164-0.206,3.938-5.001,3.938-7.938h-1l-4,6.281l-4-6.281H3z M4,1048.362c0.834,0,1.5,0.666,1.5,1.5s-0.666,1.5-1.5,1.5
	s-1.5-0.666-1.5-1.5S3.166,1048.362,4,1048.362z M12,1048.362c0.834,0,1.5,0.666,1.5,1.5s-0.666,1.5-1.5,1.5s-1.5-0.666-1.5-1.5
	S11.166,1048.362,12,1048.362z"/>
</svg>
