<?xml version="1.0" encoding="utf-8"?>
<!-- Generator: Adobe Illustrator 16.0.0, SVG Export Plug-In . SVG Version: 6.00 Build 0)  -->
<!DOCTYPE svg PUBLIC "-//W3C//DTD SVG 1.1//EN" "http://www.w3.org/Graphics/SVG/1.1/DTD/svg11.dtd">
<svg version="1.1"
	 id="svg2" sodipodi:docname="date.svg" inkscape:export-ydpi="90" inkscape:export-xdpi="90" inkscape:export-filename="/home/samclarke/Desktop/new icons/bullet-list.png" inkscape:version="0.48.3.1 r9886" xmlns:dc="http://purl.org/dc/elements/1.1/" xmlns:cc="http://creativecommons.org/ns#" xmlns:rdf="http://www.w3.org/1999/02/22-rdf-syntax-ns#" xmlns:svg="http://www.w3.org/2000/svg" xmlns:sodipodi="http://sodipodi.sourceforge.net/DTD/sodipodi-0.dtd" xmlns:inkscape="http://www.inkscape.org/namespaces/inkscape"
	 xmlns="http://www.w3.org/2000/svg" xmlns:xlink="http://www.w3.org/1999/xlink" x="0px" y="0px" width="16px" height="16px"
	 viewBox="0 0 16 16" enable-background="new 0 0 16 16" xml:space="preserve">
<title  id="title3184">SCEditor</title>
<defs>
	
	
		<inkscape:perspective  inkscape:persp3d-origin="8 : 5.3333333 : 1" inkscape:vp_z="16 : 8 : 1" inkscape:vp_y="0 : 1000 : 0" inkscape:vp_x="0 : 8 : 1" sodipodi:type="inkscape:persp3d" id="perspective3023">
		</inkscape:perspective>
</defs>
<sodipodi:namedview  inkscape:window-maximized="1" inkscape:snap-global="true" inkscape:snap-bbox="true" inkscape:window-y="27" inkscape:window-x="0" inkscape:window-height="1025" inkscape:window-width="1920" inkscape:current-layer="layer1" inkscape:document-units="px" inkscape:pageshadow="2" inkscape:pageopacity="0" showgrid="true" borderopacity="1.0" bordercolor="#666666" pagecolor="#ffffff" inkscape:cy="13.191995" inkscape:cx="9.2818165" inkscape:zoom="22.627418" id="base">
	
		<inkscape:grid  snapvisiblegridlinesonly="true" spacingy="1px" spacingx="0.9px" empspacing="5" id="grid3041" visible="true" type="xygrid" originy="0.5px" originx="-2.7755576e-17px" enabled="true">
		</inkscape:grid>
</sodipodi:namedview>
<path id="layer1" transform="translate(0,-1036.3622)" inkscape:groupmode="layer" inkscape:label="Layer 1" d="M1.313,1037.362v0.5
	v3v0.5v9.5v0.5h0.5h12.594h0.5v-0.5v-9.5v-0.5v-3v-0.5h-0.5h-1.813h-0.5v0.5v1.5h-1.688v-1.5v-0.5h-0.5H6.313h-0.5v0.5v1.5H4.094
	v-1.5v-0.5h-0.5H1.813H1.313z M2.313,1041.362h11.594v9H2.313V1041.362z M10.031,1042.675c-0.357,0-0.686,0.075-1,0.219
	c-0.31,0.139-0.578,0.344-0.813,0.563l0.594,0.813c0.037-0.037,0.082-0.066,0.156-0.125c0.074-0.064,0.148-0.128,0.25-0.188
	c0.106-0.064,0.221-0.113,0.344-0.156c0.128-0.048,0.262-0.094,0.406-0.094c0.197,0,0.367,0.06,0.5,0.156s0.219,0.265,0.219,0.5
	c0,0.106-0.046,0.206-0.094,0.313c-0.048,0.102-0.102,0.206-0.188,0.313c-0.086,0.102-0.17,0.201-0.281,0.313
	c-0.111,0.106-0.247,0.221-0.375,0.344c-0.166,0.16-0.329,0.34-0.5,0.5c-0.166,0.16-0.305,0.313-0.438,0.5
	c-0.133,0.182-0.258,0.381-0.344,0.594c-0.08,0.213-0.125,0.463-0.125,0.719v0.188c0,0.091,0.021,0.16,0.031,0.219h3.688v-1H9.688
	c0.016-0.053,0.061-0.107,0.125-0.188c0.069-0.086,0.133-0.186,0.219-0.281s0.159-0.19,0.25-0.281
	c0.096-0.096,0.201-0.175,0.281-0.25c0.154-0.145,0.309-0.309,0.469-0.469s0.31-0.329,0.438-0.5
	c0.128-0.176,0.232-0.345,0.313-0.531s0.125-0.391,0.125-0.594c0-0.245-0.051-0.464-0.125-0.656c-0.069-0.197-0.189-0.367-0.344-0.5
	c-0.149-0.139-0.328-0.237-0.563-0.313S10.356,1042.675,10.031,1042.675z M5.781,1042.831c-0.117,0.123-0.257,0.232-0.406,0.344
	c-0.144,0.106-0.309,0.211-0.469,0.313c-0.16,0.096-0.329,0.196-0.5,0.281c-0.166,0.08-0.314,0.124-0.469,0.188l0.375,0.938
	c0.187-0.064,0.365-0.134,0.563-0.219c0.197-0.091,0.371-0.206,0.531-0.313v4h1.188v-5.531H5.781z"/>
</svg>
