<?xml version="1.0" encoding="utf-8"?>
<!-- Generator: Adobe Illustrator 16.0.0, SVG Export Plug-In . SVG Version: 6.00 Build 0)  -->
<!DOCTYPE svg PUBLIC "-//W3C//DTD SVG 1.1//EN" "http://www.w3.org/Graphics/SVG/1.1/DTD/svg11.dtd">
<svg version="1.1"
	 id="svg2" sodipodi:docname="email.svg" inkscape:export-ydpi="90" inkscape:export-xdpi="90" inkscape:export-filename="/home/samclarke/Desktop/new icons/bullet-list.png" inkscape:version="0.48.3.1 r9886" xmlns:dc="http://purl.org/dc/elements/1.1/" xmlns:cc="http://creativecommons.org/ns#" xmlns:rdf="http://www.w3.org/1999/02/22-rdf-syntax-ns#" xmlns:svg="http://www.w3.org/2000/svg" xmlns:sodipodi="http://sodipodi.sourceforge.net/DTD/sodipodi-0.dtd" xmlns:inkscape="http://www.inkscape.org/namespaces/inkscape"
	 xmlns="http://www.w3.org/2000/svg" xmlns:xlink="http://www.w3.org/1999/xlink" x="0px" y="0px" width="16px" height="16px"
	 viewBox="0 0 16 16" enable-background="new 0 0 16 16" xml:space="preserve">
<title  id="title3184">SCEditor</title>
<defs>
	
	
		<inkscape:perspective  inkscape:persp3d-origin="8 : 5.3333333 : 1" inkscape:vp_z="16 : 8 : 1" inkscape:vp_y="0 : 1000 : 0" inkscape:vp_x="0 : 8 : 1" sodipodi:type="inkscape:persp3d" id="perspective3023">
		</inkscape:perspective>
</defs>
<sodipodi:namedview  inkscape:window-maximized="1" inkscape:snap-global="true" inkscape:snap-bbox="true" inkscape:window-y="27" inkscape:window-x="0" inkscape:window-height="1025" inkscape:window-width="1920" inkscape:current-layer="layer1" inkscape:document-units="px" inkscape:pageshadow="2" inkscape:pageopacity="0" showgrid="true" borderopacity="1.0" bordercolor="#666666" pagecolor="#ffffff" inkscape:cy="6.9746337" inkscape:cx="2.7642048" inkscape:zoom="11.313708" id="base">
	
		<inkscape:grid  snapvisiblegridlinesonly="true" spacingy="1px" spacingx="1px" empspacing="5" id="grid3041" visible="true" type="xygrid" originy="2.7755576e-17px" originx="2.7755576e-17px" enabled="true">
		</inkscape:grid>
</sodipodi:namedview>
<path id="layer1" transform="translate(0,-1036.3622)" inkscape:groupmode="layer" inkscape:label="Layer 1" d="M3,1039.612
	c-1.25,0-2.067,0.728-2.406,1.406s-0.344,1.344-0.344,1.344v5c0,0,0.004,0.634,0.344,1.313s1.156,1.438,2.406,1.438h10
	c1.246,0,2.064-0.735,2.406-1.406s0.344-1.313,0.344-1.313v-5.031c0,0-0.004-0.665-0.344-1.344s-1.156-1.406-2.406-1.406H3z
	 M4.031,1041.112h7.938L8,1044.425L4.031,1041.112z M2.094,1041.393l5.438,4.531L8,1046.331l0.469-0.406l5.438-4.531
	c0.081,0.084,0.133,0.172,0.188,0.281c0.16,0.321,0.156,0.688,0.156,0.688v5.031c0,0,0.002,0.314-0.156,0.625
	s-0.34,0.594-1.094,0.594H3c-0.75,0-0.933-0.272-1.094-0.594s-0.156-0.656-0.156-0.656v-5c0,0-0.004-0.366,0.156-0.688
	C1.961,1041.565,2.013,1041.478,2.094,1041.393z"/>
</svg>
