<?xml version="1.0" encoding="utf-8"?>
<!-- Generator: Adobe Illustrator 16.0.0, SVG Export Plug-In . SVG Version: 6.00 Build 0)  -->
<!DOCTYPE svg PUBLIC "-//W3C//DTD SVG 1.1//EN" "http://www.w3.org/Graphics/SVG/1.1/DTD/svg11.dtd">
<svg version="1.1"
	 id="svg2" inkscape:export-filename="/home/samclarke/Desktop/new icons/bullet-list.png" xmlns:dc="http://purl.org/dc/elements/1.1/" xmlns:cc="http://creativecommons.org/ns#" xmlns:rdf="http://www.w3.org/1999/02/22-rdf-syntax-ns#" xmlns:svg="http://www.w3.org/2000/svg" xmlns:sodipodi="http://sodipodi.sourceforge.net/DTD/sodipodi-0.dtd" xmlns:inkscape="http://www.inkscape.org/namespaces/inkscape" inkscape:version="0.48.4 r9939" sodipodi:docname="email.svg" inkscape:export-xdpi="90" inkscape:export-ydpi="90"
	 xmlns="http://www.w3.org/2000/svg" xmlns:xlink="http://www.w3.org/1999/xlink" x="0px" y="0px" width="16px" height="16px"
	 viewBox="0 0 16 16" enable-background="new 0 0 16 16" xml:space="preserve">
<title  id="title3184">SCEditor</title>
<defs>
	
	
		<inkscape:perspective  id="perspective3023" sodipodi:type="inkscape:persp3d" inkscape:vp_x="0 : 8 : 1" inkscape:vp_y="0 : 1000 : 0" inkscape:vp_z="16 : 8 : 1" inkscape:persp3d-origin="8 : 5.3333333 : 1">
		</inkscape:perspective>
</defs>
<sodipodi:namedview  id="base" inkscape:window-maximized="1" inkscape:zoom="16" inkscape:cx="3.4665634" inkscape:cy="3.3672801" pagecolor="#ffffff" bordercolor="#666666" borderopacity="1.0" showgrid="true" inkscape:pageopacity="0" inkscape:pageshadow="2" inkscape:document-units="px" inkscape:current-layer="svg2" inkscape:window-width="1855" inkscape:window-height="1056" inkscape:window-x="65" inkscape:window-y="24" inkscape:snap-bbox="true" inkscape:snap-global="true">
	
		<inkscape:grid  visible="true" enabled="true" originx="2.7755576e-17px" originy="2.7755576e-17px" id="grid3041" type="xygrid" empspacing="5" spacingx="1px" spacingy="1px" snapvisiblegridlinesonly="true">
		</inkscape:grid>
</sodipodi:namedview>
<path d="M1,4.5v8C1,12.762,1.238,13,1.5,13h13c0.262,0,0.5-0.238,0.5-0.5c0,0,0-5.271,0-7.906C15,4,15,4,14.5,4
	C10.188,4,1.563,4,1.563,4C1,4,1,4,1,4.5z M2,5h12v7H2V5z M1.813,4.094L1.188,4.906l6.5,5L8,10.125l0.313-0.219l6.5-5l-0.625-0.813
	L8,8.844L1.813,4.094z"/>
</svg>
