<?xml version="1.0" encoding="utf-8"?>
<!-- Generator: Adobe Illustrator 16.0.0, SVG Export Plug-In . SVG Version: 6.00 Build 0)  -->
<!DOCTYPE svg PUBLIC "-//W3C//DTD SVG 1.1//EN" "http://www.w3.org/Graphics/SVG/1.1/DTD/svg11.dtd">
<svg version="1.1"
	 id="svg2" xmlns:dc="http://purl.org/dc/elements/1.1/" xmlns:cc="http://creativecommons.org/ns#" xmlns:rdf="http://www.w3.org/1999/02/22-rdf-syntax-ns#" xmlns:svg="http://www.w3.org/2000/svg" xmlns:sodipodi="http://sodipodi.sourceforge.net/DTD/sodipodi-0.dtd" xmlns:inkscape="http://www.inkscape.org/namespaces/inkscape" inkscape:export-filename="/home/samclarke/Desktop/new icons/bullet-list.png" inkscape:version="0.48.3.1 r9886" inkscape:export-xdpi="90" inkscape:export-ydpi="90" sodipodi:docname="emoticon.svg"
	 xmlns="http://www.w3.org/2000/svg" xmlns:xlink="http://www.w3.org/1999/xlink" x="0px" y="0px" width="16px" height="16px"
	 viewBox="0 0 16 16" enable-background="new 0 0 16 16" xml:space="preserve">
<title  id="title3184">SCEditor</title>
<defs>
	
	
		<inkscape:perspective  id="perspective3023" inkscape:vp_x="0 : 8 : 1" inkscape:vp_y="0 : 1000 : 0" inkscape:vp_z="16 : 8 : 1" sodipodi:type="inkscape:persp3d" inkscape:persp3d-origin="8 : 5.3333333 : 1">
		</inkscape:perspective>
</defs>
<sodipodi:namedview  id="base" inkscape:zoom="7.9999999" inkscape:cx="-13.75052" inkscape:cy="19.206319" pagecolor="#ffffff" bordercolor="#666666" borderopacity="1.0" showgrid="true" inkscape:window-maximized="1" inkscape:pageopacity="0" inkscape:pageshadow="2" inkscape:document-units="px" inkscape:current-layer="layer1" inkscape:window-width="1920" inkscape:window-height="1025" inkscape:window-x="0" inkscape:window-y="27" inkscape:snap-bbox="true" inkscape:snap-global="true">
	
		<inkscape:grid  enabled="true" originx="2.7755576e-17px" originy="0.5px" type="xygrid" visible="true" id="grid3041" empspacing="5" spacingx="1px" spacingy="1px" snapvisiblegridlinesonly="true">
		</inkscape:grid>
</sodipodi:namedview>
<path d="M8,1C4.416,1,1.5,3.916,1.5,7.5S4.416,14,8,14s6.5-2.916,6.5-6.5S11.584,1,8,1z M8,2c3.043,0,5.5,2.457,5.5,5.5
	S11.043,13,8,13s-5.5-2.457-5.5-5.5S4.957,2,8,2z M6,4C5.454,4,5,4.454,5,5s0.454,1,1,1s1-0.454,1-1S6.546,4,6,4z M10,4
	C9.453,4,9,4.454,9,5s0.453,1,1,1s1-0.454,1-1S10.547,4,10,4z M4.5,8.5c0,0-0.002,0.652,0.469,1.281C5.44,10.409,6.389,11,8,11
	c1.611,0,2.561-0.591,3.031-1.219C11.501,9.152,11.5,8.5,11.5,8.5h-1c0,0-0.002,0.314-0.281,0.688S9.389,10.001,8,10.001
	c-1.389,0-1.94-0.44-2.219-0.813C5.502,8.814,5.5,8.5,5.5,8.5H4.5z"/>
</svg>
