<?xml version="1.0" encoding="UTF-8" standalone="no"?>
<!-- Generator: Adobe Illustrator 16.0.0, SVG Export Plug-In . SVG Version: 6.00 Build 0)  -->

<svg
   xmlns:dc="http://purl.org/dc/elements/1.1/"
   xmlns:cc="http://creativecommons.org/ns#"
   xmlns:rdf="http://www.w3.org/1999/02/22-rdf-syntax-ns#"
   xmlns:svg="http://www.w3.org/2000/svg"
   xmlns="http://www.w3.org/2000/svg"
   xmlns:sodipodi="http://sodipodi.sourceforge.net/DTD/sodipodi-0.dtd"
   xmlns:inkscape="http://www.inkscape.org/namespaces/inkscape"
   version="1.1"
   id="svg2"
   inkscape:export-filename="/home/samclarke/Desktop/new icons/bullet-list.png"
   inkscape:version="0.48.4 r9939"
   inkscape:export-xdpi="90"
   inkscape:export-ydpi="90"
   sodipodi:docname="emoticon.svg"
   x="0px"
   y="0px"
   width="16px"
   height="16px"
   viewBox="0 0 16 16"
   enable-background="new 0 0 16 16"
   xml:space="preserve"><metadata
     id="metadata11"><rdf:RDF><cc:Work
         rdf:about=""><dc:format>image/svg+xml</dc:format><dc:type
           rdf:resource="http://purl.org/dc/dcmitype/StillImage" /></cc:Work></rdf:RDF></metadata><title
     id="title3184">SCEditor</title><defs
     id="defs4"><inkscape:perspective
       id="perspective3023"
       inkscape:vp_x="0 : 8 : 1"
       inkscape:vp_y="0 : 1000 : 0"
       inkscape:vp_z="16 : 8 : 1"
       sodipodi:type="inkscape:persp3d"
       inkscape:persp3d-origin="8 : 5.3333333 : 1" /></defs><sodipodi:namedview
     id="base"
     inkscape:zoom="45.254833"
     inkscape:cx="4.4705251"
     inkscape:cy="8.8277513"
     pagecolor="#ffffff"
     bordercolor="#666666"
     borderopacity="1.0"
     showgrid="true"
     inkscape:window-maximized="1"
     inkscape:pageopacity="0"
     inkscape:pageshadow="2"
     inkscape:document-units="px"
     inkscape:current-layer="svg2"
     inkscape:window-width="1855"
     inkscape:window-height="1056"
     inkscape:window-x="65"
     inkscape:window-y="24"
     inkscape:snap-bbox="true"
     inkscape:snap-global="true"><inkscape:grid
       enabled="true"
       originx="2.7755576e-17px"
       originy="2.7755576e-17px"
       type="xygrid"
       visible="true"
       id="grid3041"
       empspacing="5"
       spacingx="1px"
       spacingy="1px"
       snapvisiblegridlinesonly="true" /></sodipodi:namedview><path
     id="path2988"
     style="fill:#000000;fill-opacity:1;stroke:none"
     d="M 8,1 C 4.1340068,1 1,4.1340068 1,8 c 0,3.865993 3.1340068,7 7,7 3.865993,0 7,-3.134007 7,-7 C 15,4.1340068 11.865993,1 8,1 z m 0,1 c 3.313708,0 6,2.6862915 6,6 0,3.313708 -2.686292,6 -6,6 C 4.6862915,14 2,11.313708 2,8 2,4.6862915 4.6862915,2 8,2 z M 6,5 C 5.454,5 5,5.454 5,6 5,6.546 5.454,7 6,7 6.546,7 7,6.546 7,6 7,5.454 6.546,5 6,5 z m 4,0 C 9.453,5 9,5.454 9,6 9,6.546 9.453,7 10,7 10.547,7 11,6.546 11,6 11,5.454 10.547,5 10,5 z M 4.5,9.5 c 0,0 -0.002,0.652 0.469,1.281 C 5.44,11.409 6.389,12 8,12 9.611,12 10.561,11.409 11.031,10.781 11.501,10.152 11.5,9.5 11.5,9.5 l -1,0 c 0,0 -0.002,0.314 -0.281,0.688 C 9.94,10.562 9.389,11.001 8,11.001 6.611,11.001 6.06,10.561 5.781,10.188 5.502,9.814 5.5,9.5 5.5,9.5 z" /></svg>