<svg width="16px" height="16px" viewBox="0 0 16 16"
     xmlns="http://www.w3.org/2000/svg" version="1.1">

  <path
     d="M 8,1 C 4.1340068,1 1,4.1340068 1,8 c 0,3.865993 3.1340068,7 7,7 3.865993,0 7,-3.134007 7,-7 C 15,4.1340068 11.865993,1 8,1 z m 0,1 c 3.313708,0 6,2.6862915 6,6 0,3.313708 -2.686292,6 -6,6 C 4.6862915,14 2,11.313708 2,8 2,4.6862915 4.6862915,2 8,2 z M 6,5 C 5.454,5 5,5.454 5,6 5,6.546 5.454,7 6,7 6.546,7 7,6.546 7,6 7,5.454 6.546,5 6,5 z m 4,0 C 9.453,5 9,5.454 9,6 9,6.546 9.453,7 10,7 10.547,7 11,6.546 11,6 11,5.454 10.547,5 10,5 z M 4.5,9.5 c 0,0 -0.002,0.652 0.469,1.281 C 5.44,11.409 6.389,12 8,12 9.611,12 10.561,11.409 11.031,10.781 11.501,10.152 11.5,9.5 11.5,9.5 l -1,0 c 0,0 -0.002,0.314 -0.281,0.688 C 9.94,10.562 9.389,11.001 8,11.001 6.611,11.001 6.06,10.561 5.781,10.188 5.502,9.814 5.5,9.5 5.5,9.5 z" />

</svg>