<svg width="16px" height="16px" viewBox="0 0 16 16"
     xmlns="http://www.w3.org/2000/svg" version="1.1">
  <path d="M7.953,9.75h-4.06c-0.131,0.379-0.263,0.76-0.395,1.141S3.244,11.643,3.13,12H0.7c0.391-1.119,0.762-2.154,1.113-3.105
	c0.351-0.95,0.694-1.846,1.031-2.686c0.336-0.84,0.667-1.637,0.993-2.393c0.326-0.754,0.664-1.492,1.016-2.212h2.218
	c0.342,0.72,0.679,1.458,1.01,2.212c0.331,0.756,0.665,1.553,1.001,2.393c0.337,0.84,0.105,0.338,0.458,1.288
	S8.085,10.127,7.953,9.75z M5.912,3.959C5.86,4.11,5.783,4.316,5.683,4.575c-0.1,0.26-0.215,0.56-0.343,0.901
	C5.211,5.817,5.067,6.192,4.909,6.601C4.75,7.01,4.589,7.44,4.425,7.889h2.972c-0.159-0.45-0.312-0.882-0.461-1.292
	C6.787,6.187,6.645,5.811,6.511,5.47c-0.135-0.34-0.252-0.641-0.354-0.9C6.057,4.31,5.975,4.107,5.912,3.959z M12.861,14.001
	c-0.108-0.336-0.225-0.685-0.35-1.037c-0.123-0.354-0.248-0.711-0.371-1.063H8.352c-0.122,0.354-0.245,0.709-0.368,1.064
	S7.746,13.666,7.64,14H5.373c0.365-1.045,0.711-2.01,1.039-2.896C6.74,10.218,7.06,9.381,7.374,8.598
	c0.313-0.786,0.623-1.53,0.927-2.235c0.305-0.705,0.62-1.393,0.948-2.065h2.069c0.318,0.672,0.634,1.36,0.941,2.065
	c0.311,0.705,0.621,1.449,0.936,2.235c0.314,0.783,0.636,1.619,0.964,2.506c0.327,0.888,0.676,1.853,1.041,2.896L12.861,14.001
	L12.861,14.001z M10.236,6.497c-0.049,0.141-0.118,0.333-0.213,0.576c-0.094,0.242-0.2,0.521-0.319,0.84
	C9.583,8.23,9.45,8.581,9.302,8.964c-0.147,0.382-0.299,0.783-0.45,1.201h2.772c-0.147-0.42-0.291-0.822-0.433-1.205
	c-0.139-0.383-0.271-0.735-0.396-1.053c-0.125-0.317-0.233-0.598-0.33-0.84C10.372,6.824,10.296,6.634,10.236,6.497z"/>
</svg>
