<svg width="16px" height="16px" viewBox="0 0 16 16"
     xmlns="http://www.w3.org/2000/svg" version="1.1">

  <path
     d="m 10.5,2 0,1.5 1.5,0 c 0.235294,0 0.401489,-0.00853 0.5,0 0.0081,0.087843 0,0.2786006 0,0.5 l 0,2 1.5,0 0,-2.5625 C 14,3.2002864 13.990346,3.0281748 13.96875,2.84375 13.947154,2.6593252 13.901986,2.4238643 13.71875,2.25 13.535514,2.0761357 13.311712,2.0509347 13.125,2.03125 12.938288,2.0115653 12.75,2 12.5,2 z M 10.5,0 7.187,2.5 10.5,5 z M 11,5.187 13.5,8.5 16,5.187 z m -0.958,-0.339 -2.0299999,0 -3.234,8.456 c -0.1539998,0.392 -0.3360005,0.994 -0.854,1.022 l 0,0.518 2.744,0 0,-0.518 c -0.6439994,-0.168 -0.6579998,-0.462001 -0.434,-1.036 l 0.784,-2.086 3.4299999,0 0.854,2.086 c 0.238,0.573999 0.307999,0.924 -0.406,1.036 l 0,0.518 3.276,0 0,-0.518 C 13.738001,14.27 13.626,13.962 13.486,13.598 L 10.042,4.848 M 7.4240001,10 8.6840001,6.682 10,10 7.4240001,10 m -2.5121202,-9.02535984 -1.6298,0 L 0.68563999,7.7636 C 0.56200011,8.0783197 0.41587958,8.56164 0,8.58412 L 0,9 l 2.20304,0 0,-0.41588 C 1.6860005,8.4492401 1.6747601,8.2131996 1.8546,7.75236 l 0.62944,-1.6747599 2.7537999,0 0.68564,1.6747599 c 0.1910798,0.4608396 0.2472794,0.7418401 -0.32596,0.83176 l 0,0.41588 C 7.3271315,9.1370583 7.4352401,8.9980379 7.6769198,7.99964 L 4.9118799,0.97464016 m -2.10188,4.13631994 1.0116,-2.66388 1.05656,2.66388 -2.06816,0" />

</svg>