<?xml version="1.0" encoding="utf-8"?>
<!-- Generator: Adobe Illustrator 16.0.0, SVG Export Plug-In . SVG Version: 6.00 Build 0)  -->
<!DOCTYPE svg PUBLIC "-//W3C//DTD SVG 1.1//EN" "http://www.w3.org/Graphics/SVG/1.1/DTD/svg11.dtd">
<svg version="1.1"
	 id="svg2" xmlns:dc="http://purl.org/dc/elements/1.1/" xmlns:cc="http://creativecommons.org/ns#" xmlns:rdf="http://www.w3.org/1999/02/22-rdf-syntax-ns#" xmlns:svg="http://www.w3.org/2000/svg" xmlns:sodipodi="http://sodipodi.sourceforge.net/DTD/sodipodi-0.dtd" xmlns:inkscape="http://www.inkscape.org/namespaces/inkscape" inkscape:export-filename="/home/samclarke/Desktop/new icons/bullet-list.png" inkscape:export-ydpi="90" inkscape:export-xdpi="90" sodipodi:docname="image.svg" inkscape:version="0.48.3.1 r9886"
	 xmlns="http://www.w3.org/2000/svg" xmlns:xlink="http://www.w3.org/1999/xlink" x="0px" y="0px" width="16px" height="16px"
	 viewBox="0 0 16 16" enable-background="new 0 0 16 16" xml:space="preserve">
<title  id="title3184">SCEditor</title>
<defs>
	
	
		<inkscape:perspective  id="perspective3023" inkscape:vp_z="16 : 8 : 1" inkscape:vp_y="0 : 1000 : 0" inkscape:vp_x="0 : 8 : 1" sodipodi:type="inkscape:persp3d" inkscape:persp3d-origin="8 : 5.3333333 : 1">
		</inkscape:perspective>
</defs>
<sodipodi:namedview  id="base" showgrid="true" borderopacity="1.0" bordercolor="#666666" pagecolor="#ffffff" inkscape:cy="7.4228501" inkscape:cx="-3.6156787" inkscape:zoom="22.627417" inkscape:window-maximized="1" inkscape:snap-global="true" inkscape:snap-bbox="true" inkscape:window-y="27" inkscape:window-x="0" inkscape:window-height="1025" inkscape:window-width="1920" inkscape:current-layer="layer1" inkscape:document-units="px" inkscape:pageshadow="2" inkscape:pageopacity="0">
	
		<inkscape:grid  originy="0.5px" originx="2.7755576e-17px" enabled="true" visible="true" type="xygrid" id="grid3041" spacingy="1px" spacingx="1px" empspacing="5" snapvisiblegridlinesonly="true">
		</inkscape:grid>
</sodipodi:namedview>
<path id="layer1" transform="translate(0,-1036.3622)" inkscape:label="Layer 1" inkscape:groupmode="layer" d="M0.5,1039.362v0.5v8
	v2v0.5H1h14h0.5v-0.5v-3v-7v-0.5H15H1H0.5z M1.5,1040.362h13v5.313l-3.156-3.156c-0.109-0.118-0.277-0.179-0.438-0.156
	c-0.096,0.026-0.185,0.081-0.25,0.156l-3.875,3.875l-5.281,0.875V1040.362z M4.5,1041.862c-0.829,0-1.5,0.671-1.5,1.5
	s0.671,1.5,1.5,1.5s1.5-0.671,1.5-1.5S5.329,1041.862,4.5,1041.862z"/>
</svg>
