<?xml version="1.0" encoding="utf-8"?>
<!-- Generator: Adobe Illustrator 16.0.0, SVG Export Plug-In . SVG Version: 6.00 Build 0)  -->
<!DOCTYPE svg PUBLIC "-//W3C//DTD SVG 1.1//EN" "http://www.w3.org/Graphics/SVG/1.1/DTD/svg11.dtd">
<svg version="1.1"
	 id="svg2" sodipodi:docname="italic.svg" inkscape:export-ydpi="90" inkscape:export-xdpi="90" inkscape:export-filename="/home/samclarke/Desktop/new icons/bullet-list.png" inkscape:version="0.48.3.1 r9886" xmlns:dc="http://purl.org/dc/elements/1.1/" xmlns:cc="http://creativecommons.org/ns#" xmlns:rdf="http://www.w3.org/1999/02/22-rdf-syntax-ns#" xmlns:svg="http://www.w3.org/2000/svg" xmlns:sodipodi="http://sodipodi.sourceforge.net/DTD/sodipodi-0.dtd" xmlns:inkscape="http://www.inkscape.org/namespaces/inkscape"
	 xmlns="http://www.w3.org/2000/svg" xmlns:xlink="http://www.w3.org/1999/xlink" x="0px" y="0px" width="16px" height="16px"
	 viewBox="0 0 16 16" enable-background="new 0 0 16 16" xml:space="preserve">
<title  id="title3184">SCEditor</title>
<defs>
	
	
		<inkscape:perspective  inkscape:persp3d-origin="8 : 5.3333333 : 1" inkscape:vp_z="16 : 8 : 1" inkscape:vp_y="0 : 1000 : 0" inkscape:vp_x="0 : 8 : 1" sodipodi:type="inkscape:persp3d" id="perspective3023">
		</inkscape:perspective>
</defs>
<sodipodi:namedview  inkscape:window-maximized="0" inkscape:snap-global="true" inkscape:snap-bbox="true" inkscape:window-y="186" inkscape:window-x="749" inkscape:window-height="669" inkscape:window-width="798" inkscape:current-layer="layer1" inkscape:document-units="px" inkscape:pageshadow="2" inkscape:pageopacity="0" showgrid="true" borderopacity="1.0" bordercolor="#666666" pagecolor="#ffffff" inkscape:cy="8.0095322" inkscape:cx="3.1371106" inkscape:zoom="22.627417" id="base">
	
		<inkscape:grid  snapvisiblegridlinesonly="true" spacingy="1px" spacingx="1px" empspacing="5" id="grid3041" visible="true" type="xygrid" originy="0.5px" originx="2.7755576e-17px" enabled="true">
		</inkscape:grid>
</sodipodi:namedview>
<path id="layer1" transform="translate(0,-1036.3622)" inkscape:groupmode="layer" inkscape:label="Layer 1" d="M9.281,1038.362
	c-0.352,0-0.691,0.119-0.969,0.375c-0.267,0.256-0.375,0.574-0.375,0.969c0,0.341,0.099,0.611,0.313,0.781
	c0.213,0.171,0.462,0.25,0.75,0.25c0.352,0,0.66-0.129,0.938-0.375c0.277-0.256,0.438-0.574,0.438-0.969
	c0-0.341-0.119-0.61-0.344-0.781C9.818,1038.431,9.569,1038.362,9.281,1038.362z M7.625,1041.987l-2,8.375h1.938l2-8.375H7.625z"/>
</svg>
