<?xml version="1.0" encoding="UTF-8" standalone="no"?>
<!-- Generator: Adobe Illustrator 16.0.0, SVG Export Plug-In . SVG Version: 6.00 Build 0)  -->

<svg
   xmlns:dc="http://purl.org/dc/elements/1.1/"
   xmlns:cc="http://creativecommons.org/ns#"
   xmlns:rdf="http://www.w3.org/1999/02/22-rdf-syntax-ns#"
   xmlns:svg="http://www.w3.org/2000/svg"
   xmlns="http://www.w3.org/2000/svg"
   xmlns:sodipodi="http://sodipodi.sourceforge.net/DTD/sodipodi-0.dtd"
   xmlns:inkscape="http://www.inkscape.org/namespaces/inkscape"
   version="1.1"
   id="svg2"
   inkscape:export-filename="/home/samclarke/Desktop/new icons/justify.png"
   inkscape:export-ydpi="90"
   inkscape:export-xdpi="90"
   sodipodi:docname="maximise.svg"
   inkscape:version="0.48.4 r9939"
   x="0px"
   y="0px"
   width="16px"
   height="16px"
   viewBox="0 0 16 16"
   enable-background="new 0 0 16 16"
   xml:space="preserve"><metadata
     id="metadata4089"><rdf:RDF><cc:Work
         rdf:about=""><dc:format>image/svg+xml</dc:format><dc:type
           rdf:resource="http://purl.org/dc/dcmitype/StillImage" /><dc:title>SCEditor</dc:title></cc:Work></rdf:RDF></metadata><title
     id="title3184">SCEditor</title><defs
     id="defs4083"><inkscape:perspective
       id="perspective3023"
       inkscape:vp_z="16 : 8 : 1"
       inkscape:vp_y="0 : 1000 : 0"
       inkscape:vp_x="0 : 8 : 1"
       sodipodi:type="inkscape:persp3d"
       inkscape:persp3d-origin="8 : 5.3333333 : 1" /></defs><sodipodi:namedview
     id="base"
     showgrid="true"
     borderopacity="1.0"
     bordercolor="#666666"
     pagecolor="#ffffff"
     inkscape:cy="5.462345"
     inkscape:cx="0.46299742"
     inkscape:zoom="16"
     inkscape:window-maximized="0"
     inkscape:snap-global="true"
     inkscape:snap-bbox="true"
     inkscape:window-y="71"
     inkscape:window-x="303"
     inkscape:window-height="667"
     inkscape:window-width="907"
     inkscape:current-layer="svg2"
     inkscape:document-units="px"
     inkscape:pageshadow="2"
     inkscape:pageopacity="0"><inkscape:grid
       enabled="true"
       visible="true"
       type="xygrid"
       id="grid3041"
       spacingy="0.5px"
       spacingx="0.5px"
       empspacing="5"
       snapvisiblegridlinesonly="true" /></sodipodi:namedview><path
     style="fill:#000000;stroke:none"
     d="M 2,7 C 2.5833333,6.4166667 3.1666667,5.8333333 3.75,5.25 3.0833333,4.5833333 2.4166667,3.9166667 1.75,3.25 1.1666667,3.8333333 0.58333333,4.4166667 0,5 0,3.3333333 0,1.6666667 0,0 1.6666667,0 3.3333333,0 5,0 4.4166667,0.58333333 3.8333333,1.1666667 3.25,1.75 c 0.6666667,0.6666667 1.3333333,1.3333333 2,2 C 5.8333333,3.1666667 6.4166667,2.5833333 7,2 7,3.6666667 7,5.3333333 7,7 5.3333333,7 3.6666667,7 2,7 z m 9,9 c 0.583333,-0.583333 1.166667,-1.166667 1.75,-1.75 -0.666667,-0.666667 -1.333333,-1.333333 -2,-2 C 10.166667,12.833333 9.5833333,13.416667 9,14 9,12.333333 9,10.666667 9,9 c 1.666667,0 3.333333,0 5,0 -0.583333,0.5833333 -1.166667,1.166667 -1.75,1.75 0.666667,0.666667 1.333333,1.333333 2,2 0.583333,-0.583333 1.166667,-1.166667 1.75,-1.75 0,1.666667 0,3.333333 0,5 -1.666667,0 -3.333333,0 -5,0 z M 5,16 C 4.4166667,15.416667 3.8333333,14.833333 3.25,14.25 c 0.6666667,-0.666667 1.3333333,-1.333333 2,-2 C 5.8333333,12.833333 6.4166667,13.416667 7,14 7,12.333333 7,10.666667 7,9 5.3333333,9 3.6666667,9 2,9 c 0.5833333,0.5833333 1.1666667,1.166667 1.75,1.75 -0.6666667,0.666667 -1.3333333,1.333333 -2,2 C 1.1666667,12.166667 0.58333333,11.583333 0,11 c 0,1.666667 0,3.333333 0,5 1.6666667,0 3.3333333,0 5,0 z M 11,0 c 0.583333,0.58333333 1.166667,1.1666667 1.75,1.75 -0.666667,0.6666667 -1.333333,1.3333333 -2,2 C 10.166667,3.1666667 9.5833333,2.5833333 9,2 c 0,1.6666667 0,3.3333333 0,5 1.666667,0 3.333333,0 5,0 -0.583333,-0.5833333 -1.166667,-1.1666667 -1.75,-1.75 0.666667,-0.6666667 1.333333,-1.3333333 2,-2 C 14.833333,3.8333333 15.416667,4.4166667 16,5 16,3.3333333 16,1.6666667 16,0 14.333333,0 12.666667,0 11,0 z"
     id="path4173"
     inkscape:connector-curvature="0" /></svg>