<svg width="16px" height="16px" viewBox="0 0 16 16"
     xmlns="http://www.w3.org/2000/svg" version="1.1">

  <path
     d="M 2,7 C 2.5833333,6.4166667 3.1666667,5.8333333 3.75,5.25 3.0833333,4.5833333 2.4166667,3.9166667 1.75,3.25 1.1666667,3.8333333 0.58333333,4.4166667 0,5 0,3.3333333 0,1.6666667 0,0 1.6666667,0 3.3333333,0 5,0 4.4166667,0.58333333 3.8333333,1.1666667 3.25,1.75 c 0.6666667,0.6666667 1.3333333,1.3333333 2,2 C 5.8333333,3.1666667 6.4166667,2.5833333 7,2 7,3.6666667 7,5.3333333 7,7 5.3333333,7 3.6666667,7 2,7 z m 9,9 c 0.583333,-0.583333 1.166667,-1.166667 1.75,-1.75 -0.666667,-0.666667 -1.333333,-1.333333 -2,-2 C 10.166667,12.833333 9.5833333,13.416667 9,14 9,12.333333 9,10.666667 9,9 c 1.666667,0 3.333333,0 5,0 -0.583333,0.5833333 -1.166667,1.166667 -1.75,1.75 0.666667,0.666667 1.333333,1.333333 2,2 0.583333,-0.583333 1.166667,-1.166667 1.75,-1.75 0,1.666667 0,3.333333 0,5 -1.666667,0 -3.333333,0 -5,0 z M 5,16 C 4.4166667,15.416667 3.8333333,14.833333 3.25,14.25 c 0.6666667,-0.666667 1.3333333,-1.333333 2,-2 C 5.8333333,12.833333 6.4166667,13.416667 7,14 7,12.333333 7,10.666667 7,9 5.3333333,9 3.6666667,9 2,9 c 0.5833333,0.5833333 1.1666667,1.166667 1.75,1.75 -0.6666667,0.666667 -1.3333333,1.333333 -2,2 C 1.1666667,12.166667 0.58333333,11.583333 0,11 c 0,1.666667 0,3.333333 0,5 1.6666667,0 3.3333333,0 5,0 z M 11,0 c 0.583333,0.58333333 1.166667,1.1666667 1.75,1.75 -0.666667,0.6666667 -1.333333,1.3333333 -2,2 C 10.166667,3.1666667 9.5833333,2.5833333 9,2 c 0,1.6666667 0,3.3333333 0,5 1.666667,0 3.333333,0 5,0 -0.583333,-0.5833333 -1.166667,-1.1666667 -1.75,-1.75 0.666667,-0.6666667 1.333333,-1.3333333 2,-2 C 14.833333,3.8333333 15.416667,4.4166667 16,5 16,3.3333333 16,1.6666667 16,0 14.333333,0 12.666667,0 11,0 z" />

</svg>
