<?xml version="1.0" encoding="utf-8"?>
<!-- Generator: Adobe Illustrator 16.0.0, SVG Export Plug-In . SVG Version: 6.00 Build 0)  -->
<!DOCTYPE svg PUBLIC "-//W3C//DTD SVG 1.1//EN" "http://www.w3.org/Graphics/SVG/1.1/DTD/svg11.dtd">
<svg version="1.1"
	 id="svg2" sodipodi:docname="orderedlist.svg" inkscape:export-ydpi="90" inkscape:export-xdpi="90" inkscape:export-filename="/home/samclarke/Desktop/new icons/bullet-list.png" inkscape:version="0.48.3.1 r9886" xmlns:dc="http://purl.org/dc/elements/1.1/" xmlns:cc="http://creativecommons.org/ns#" xmlns:rdf="http://www.w3.org/1999/02/22-rdf-syntax-ns#" xmlns:svg="http://www.w3.org/2000/svg" xmlns:sodipodi="http://sodipodi.sourceforge.net/DTD/sodipodi-0.dtd" xmlns:inkscape="http://www.inkscape.org/namespaces/inkscape"
	 xmlns="http://www.w3.org/2000/svg" xmlns:xlink="http://www.w3.org/1999/xlink" x="0px" y="0px" width="16px" height="16px"
	 viewBox="0 0 16 16" enable-background="new 0 0 16 16" xml:space="preserve">
<title  id="title3184">SCEditor</title>
<defs>
	
	
		<inkscape:perspective  inkscape:persp3d-origin="8 : 5.3333333 : 1" inkscape:vp_z="16 : 8 : 1" inkscape:vp_y="0 : 1000 : 0" inkscape:vp_x="0 : 8 : 1" sodipodi:type="inkscape:persp3d" id="perspective3023">
		</inkscape:perspective>
</defs>
<sodipodi:namedview  inkscape:window-maximized="0" inkscape:snap-global="true" inkscape:snap-bbox="true" inkscape:window-y="166" inkscape:window-x="967" inkscape:window-height="667" inkscape:window-width="907" inkscape:current-layer="layer1" inkscape:document-units="px" inkscape:pageshadow="2" inkscape:pageopacity="0" showgrid="true" borderopacity="1.0" bordercolor="#666666" pagecolor="#ffffff" inkscape:cy="12.282772" inkscape:cx="4.2775111" inkscape:zoom="22.627417" id="base">
	
		<inkscape:grid  snapvisiblegridlinesonly="true" spacingy="1px" spacingx="1px" empspacing="5" id="grid3041" visible="true" type="xygrid" originy="0.5px" originx="2.7755576e-17px" enabled="true">
		</inkscape:grid>
</sodipodi:namedview>
<path id="layer1" transform="translate(0,-1036.3622)" inkscape:groupmode="layer" inkscape:label="Layer 1" d="M2.813,1036.862
	c-0.15,0.164-0.334,0.317-0.531,0.438c-0.193,0.12-0.369,0.204-0.563,0.281l0.188,0.469c0.126-0.043,0.238-0.121,0.375-0.188
	c0.137-0.066,0.254-0.118,0.344-0.188v2.656H3.25v-3.469H2.813z M6,1038.362v1h9v-1H6z M2.813,1041.862
	c-0.217,0-0.435,0.042-0.625,0.125c-0.187,0.08-0.329,0.179-0.469,0.313L2,1042.737c0.023-0.023,0.078-0.057,0.125-0.094
	c0.047-0.04,0.096-0.088,0.156-0.125c0.063-0.037,0.139-0.067,0.219-0.094s0.157-0.031,0.25-0.031c0.144,0,0.275,0.021,0.375,0.094
	s0.156,0.202,0.156,0.375c0,0.08-0.029,0.173-0.063,0.25c-0.033,0.073-0.068,0.146-0.125,0.219c-0.053,0.07-0.114,0.146-0.188,0.219
	s-0.17,0.142-0.25,0.219c-0.104,0.1-0.209,0.209-0.313,0.313s-0.198,0.196-0.281,0.313s-0.134,0.238-0.188,0.375
	c-0.05,0.133-0.094,0.277-0.094,0.438v0.094c0,0.037,0.028,0.066,0.031,0.094H4v-0.5H2.469c0.003-0.043,0.019-0.093,0.063-0.156
	c0.043-0.067,0.096-0.149,0.156-0.219s0.121-0.118,0.188-0.188s0.134-0.138,0.188-0.188c0.1-0.097,0.181-0.212,0.281-0.313
	c0.1-0.104,0.205-0.206,0.281-0.313c0.08-0.11,0.138-0.199,0.188-0.313c0.05-0.117,0.094-0.255,0.094-0.375
	c0-0.303-0.104-0.545-0.281-0.719C3.452,1041.935,3.183,1041.862,2.813,1041.862z M6,1043.362v1h9v-1H6z M2.719,1046.862
	c-0.104,0-0.188,0.012-0.281,0.031c-0.093,0.018-0.198,0.032-0.281,0.063c-0.08,0.03-0.152,0.061-0.219,0.094
	s-0.109,0.063-0.156,0.094L2,1047.612c0.09-0.057,0.196-0.113,0.313-0.156c0.117-0.047,0.256-0.063,0.406-0.063
	c0.07,0,0.124-0.018,0.188,0s0.109,0.057,0.156,0.094c0.05,0.037,0.095,0.068,0.125,0.125s0.063,0.139,0.063,0.219
	c0,0.1-0.022,0.188-0.063,0.25s-0.093,0.116-0.156,0.156c-0.063,0.037-0.139,0.045-0.219,0.063c-0.077,0.01-0.173,0.031-0.25,0.031
	h-0.25v0.5h0.219c0.113,0,0.212,0.012,0.313,0.031c0.104,0.018,0.205,0.047,0.281,0.094c0.08,0.043,0.144,0.083,0.188,0.156
	c0.047,0.073,0.063,0.172,0.063,0.281c0,0.17-0.071,0.303-0.188,0.406c-0.117,0.1-0.299,0.156-0.563,0.156
	c-0.197,0-0.367-0.022-0.5-0.063c-0.133-0.043-0.211-0.092-0.281-0.125l-0.125,0.531c0.037,0.02,0.086,0.039,0.156,0.063
	c0.07,0.02,0.135,0.045,0.219,0.063c0.086,0.02,0.188,0.021,0.281,0.031c0.097,0.01,0.191,0.031,0.281,0.031
	c0.233,0,0.427-0.041,0.594-0.094c0.17-0.057,0.328-0.126,0.438-0.219c0.11-0.097,0.166-0.214,0.219-0.344
	c0.053-0.133,0.094-0.284,0.094-0.438c0-0.23-0.067-0.416-0.188-0.563c-0.117-0.146-0.257-0.25-0.438-0.313
	c0.14-0.066,0.257-0.154,0.344-0.281c0.09-0.127,0.125-0.277,0.125-0.438c0-0.137-0.016-0.262-0.063-0.375
	c-0.043-0.117-0.125-0.198-0.219-0.281c-0.09-0.086-0.204-0.172-0.344-0.219S2.912,1046.862,2.719,1046.862z M6,1048.362v1h9.031v-1
	H6z"/>
</svg>
