<svg width="16px" height="16px" viewBox="0 0 16 16"
     xmlns="http://www.w3.org/2000/svg" version="1.1">

  <!--<rect x="5" y="2" width="9" height="3" shape-rendering="crispEdges"/>
  <rect x="5" y="7" width="9" height="3" shape-rendering="crispEdges"/>
  <rect x="5" y="12" width="9" height="3" shape-rendering="crispEdges"/>

 <text x="1" y="3" text-anchor="start" alignment-baseline="central"
  	font-family="Segoe UI, Frutiger, Dejavu Sans, Helvetica Neue, Arial, sans-serif"
    font-size="5" font-weight="bold">1.</text>
  
  <text x="1" y="8" text-anchor="start" alignment-baseline="central"
  	font-family="Segoe UI, Frutiger, Dejavu Sans, Helvetica Neue, Arial, sans-serif"
    font-size="5" font-weight="bold">2.</text>

  <text x="1" y="13" text-anchor="start" alignment-baseline="central"
  	font-family="Segoe UI, Frutiger, Dejavu Sans, Helvetica Neue, Arial, sans-serif"
    font-size="5" font-weight="bold">3.</text>-->

  <rect x="6" y="2" width="9" height="2" />
  <rect x="6" y="7" width="9" height="2" />
  <rect x="6" y="12" width="9" height="2" />

  <g>
    <path
       d="M 3.2010498,12.845657 Q 3.5927429,12.946823 3.7950745,13.198441 4,13.447464 4,13.833969 q 0,0.575867 -0.440979,0.87677 -0.440979,0.298309 -1.2866211,0.298309 -0.2983093,0 -0.5992126,-0.04928 -0.2983094,-0.04669 -0.5914307,-0.14267 l 0,-0.770416 q 0.2801514,0.140075 0.5551147,0.212707 0.2775574,0.07004 0.5447388,0.07004 0.3968811,0 0.6069946,-0.137482 0.2127076,-0.137481 0.2127076,-0.394287 0,-0.264587 -0.2178956,-0.399475 -0.2153015,-0.137482 -0.6381225,-0.137482 l -0.3994751,0 0,-0.64331 0.420227,0 q 0.3761292,0 0.5603028,-0.11673 0.1841736,-0.119324 0.1841736,-0.360565 0,-0.223084 -0.1789856,-0.345001 -0.1789856,-0.121918 -0.5058289,-0.121918 -0.2412414,0 -0.4876709,0.05447 -0.2464294,0.05447 -0.4902649,0.160828 l 0,-0.731507 q 0.2957153,-0.08301 0.5862427,-0.124512 0.2905273,-0.0415 0.5706787,-0.0415 0.7548523,0 1.1283875,0.249023 0.3761291,0.246429 0.3761291,0.744476 0,0.339814 -0.1789856,0.557709 -0.1789856,0.215302 -0.5291748,0.303497 z"/>
  </g>
  <g
     transform="translate(0.1336365,9.9999999e-8)">
    <path
       d="m 2.1621094,9.2373352 1.7042541,0 0,0.7341003 -2.8144836,0 0,-0.7341003 1.4137268,-1.2477112 q 0.1893616,-0.1712036 0.2801514,-0.3346252 0.09079,-0.1634217 0.09079,-0.3398133 0,-0.2723693 -0.1841736,-0.438385 -0.1815796,-0.1660156 -0.4850769,-0.1660156 -0.2334595,0 -0.5110169,0.1011658 -0.2775574,0.098572 -0.5940246,0.2957153 l 0,-0.8508301 q 0.3372192,-0.1115417 0.6666565,-0.1686096 0.3294372,-0.059662 0.6459045,-0.059662 0.6951904,0 1.0791016,0.3060913 0.3865051,0.3060913 0.3865051,0.853424 0,0.3164673 -0.1634216,0.5914307 Q 3.5135803,8.0518799 2.9895935,8.5110168 L 2.1621094,9.2373352 Z" />
  </g>
  <g
     transform="translate(0.1430054,0)">
    <path
       d="m 1.085144,4.2757416 0.90271,0 0,-2.5621033 -0.9266052,0.1911621 0,-0.6956177 0.9212951,-0.1911621 0.9717408,0 0,3.257721 0.9027099,0 0,0.7062378 -2.7718506,0 0,-0.7062378 z" />
  </g>
</svg>
