<svg width="16px" height="16px" viewBox="0 0 16 16"
     xmlns="http://www.w3.org/2000/svg" version="1.1">
  <path d="M4.406,0C4.167,0.045,3.996,0.257,4,0.5V1H3.594H3.531C3.521,1,3.51,1,3.5,1h-2C1.224,1,1,1.224,1,1.5v10
	C1,11.776,1.224,12,1.5,12H6v2.5C6,14.776,6.224,15,6.5,15h8c0.276,0,0.5-0.224,0.5-0.5V7.594c0.003-0.031,0.003-0.063,0-0.094
	c0.006-0.042,0.006-0.083,0-0.125c-0.009-0.021-0.02-0.042-0.031-0.063c0-0.01,0-0.021,0-0.031c-0.02-0.022-0.04-0.043-0.063-0.063
	c-0.02-0.022-0.04-0.043-0.063-0.063l-2.875-2.844c-0.031-0.06-0.073-0.113-0.125-0.156C11.754,4.061,11.631,4.005,11.5,4H10V1.5
	C10,1.224,9.776,1,9.5,1H7.594H7.5H7V0.5C7,0.224,6.776,0,6.5,0h-2C4.469-0.003,4.438-0.003,4.406,0
	C4.167,0.045,4.438-0.003,4.406,0z M2,2h1v0.5C3,2.776,3.224,3,3.5,3h4C7.776,3,8,2.776,8,2.5V2h1v2H6.5
	C6.479,3.999,6.458,3.999,6.438,4C6.405,4.007,6.374,4.018,6.344,4.031C6.299,4.046,6.257,4.067,6.219,4.094
	c-0.011,0.01-0.021,0.021-0.031,0.031c-0.011,0.01-0.021,0.021-0.031,0.031c-0.021,0.009-0.042,0.02-0.063,0.031
	C6.08,4.218,6.07,4.249,6.063,4.281c-0.011,0.01-0.021,0.021-0.031,0.031C6.009,4.373,5.999,4.436,6,4.5V11H2V2z M7,5h2.594H11v2.5
	C11,7.776,11.224,8,11.5,8H14v6H7v-2.406c0.003-0.031,0.003-0.063,0-0.094V5z M12,5.688L13.313,7H12V5.688z M4.406,0
	C4.167,0.045,3.996,0.257,4,0.5V1H3.594H3.531C3.521,1,3.51,1,3.5,1h-2C1.224,1,1,1.224,1,1.5v10C1,11.776,1.224,12,1.5,12h5
	C6.776,12,7,11.776,7,11.5V5h2.5C9.776,5,10,4.776,10,4.5v-3C10,1.224,9.776,1,9.5,1H7.594H7.5H7V0.5C7,0.224,6.776,0,6.5,0h-2
	C4.469-0.003,4.438-0.003,4.406,0C4.167,0.045,4.438-0.003,4.406,0z M2,2h1v0.5C3,2.776,3.224,3,3.5,3h4C7.776,3,8,2.776,8,2.5V2h1
	v2H6.5C6.224,4,6,4.224,6,4.5V11H2V2z M6.406,4C6.167,4.045,5.996,4.257,6,4.5v10C6,14.776,6.224,15,6.5,15h8
	c0.276,0,0.5-0.224,0.5-0.5V7.594c0.003-0.031,0.003-0.063,0-0.094c0.002-0.021,0.002-0.042,0-0.063c0-0.021,0-0.042,0-0.063
	c-0.009-0.021-0.02-0.042-0.031-0.063c0-0.01,0-0.021,0-0.031c-0.027-0.035-0.059-0.067-0.094-0.094
	c-0.01-0.011-0.021-0.021-0.031-0.031l-2.875-2.844c-0.031-0.06-0.073-0.113-0.125-0.156C11.754,4.061,11.631,4.005,11.5,4h-5
	C6.469,3.997,6.438,3.997,6.406,4C6.167,4.045,6.438,3.997,6.406,4z M7,5h4v2.5C11,7.776,11.224,8,11.5,8H14v6H7V5z M12,5.688
	L13.313,7H12V5.688z M8,12h5v1H8V12z M8,10h5v1H8V10z M8,8h5v1H8V8z M8,6h3v1H8V6z"/>
</svg>
