<?xml version="1.0" encoding="utf-8"?>
<!-- Generator: Adobe Illustrator 16.0.0, SVG Export Plug-In . SVG Version: 6.00 Build 0)  -->
<!DOCTYPE svg PUBLIC "-//W3C//DTD SVG 1.1//EN" "http://www.w3.org/Graphics/SVG/1.1/DTD/svg11.dtd">
<svg version="1.1"
	 id="svg2" xmlns:dc="http://purl.org/dc/elements/1.1/" xmlns:cc="http://creativecommons.org/ns#" xmlns:rdf="http://www.w3.org/1999/02/22-rdf-syntax-ns#" xmlns:svg="http://www.w3.org/2000/svg" xmlns:sodipodi="http://sodipodi.sourceforge.net/DTD/sodipodi-0.dtd" xmlns:inkscape="http://www.inkscape.org/namespaces/inkscape" inkscape:export-filename="/home/samclarke/Desktop/new icons/bullet-list.png" inkscape:export-ydpi="90" inkscape:export-xdpi="90" sodipodi:docname="paste.svg" inkscape:version="0.48.3.1 r9886"
	 xmlns="http://www.w3.org/2000/svg" xmlns:xlink="http://www.w3.org/1999/xlink" x="0px" y="0px" width="16px" height="16px"
	 viewBox="0 0 16 16" enable-background="new 0 0 16 16" xml:space="preserve">
<title  id="title3184">SCEditor</title>
<defs>
	
	
		<inkscape:perspective  id="perspective3023" inkscape:vp_z="16 : 8 : 1" inkscape:vp_y="0 : 1000 : 0" inkscape:vp_x="0 : 8 : 1" sodipodi:type="inkscape:persp3d" inkscape:persp3d-origin="8 : 5.3333333 : 1">
		</inkscape:perspective>
</defs>
<sodipodi:namedview  id="base" showgrid="true" borderopacity="1.0" bordercolor="#666666" pagecolor="#ffffff" inkscape:cy="7.0534757" inkscape:cx="11.368506" inkscape:zoom="45.254834" inkscape:window-maximized="1" inkscape:snap-global="true" inkscape:snap-bbox="true" inkscape:window-y="27" inkscape:window-x="0" inkscape:window-height="1025" inkscape:window-width="1920" inkscape:current-layer="layer1" inkscape:document-units="px" inkscape:pageshadow="2" inkscape:pageopacity="0">
	
		<inkscape:grid  originy="0.5px" originx="2.7755576e-17px" enabled="true" visible="true" type="xygrid" id="grid3041" spacingy="1px" spacingx="1px" empspacing="5" snapvisiblegridlinesonly="true">
		</inkscape:grid>
</sodipodi:namedview>
<path id="layer1" transform="translate(0,-1036.3622)" inkscape:label="Layer 1" inkscape:groupmode="layer" d="M4.844,1036.362
	c-0.033,0.017-0.065,0.039-0.094,0.063c-0.01,0-0.021,0-0.031,0c-0.011,0.01-0.021,0.021-0.031,0.031
	c-0.011,0.01-0.021,0.021-0.031,0.031c-0.024,0.029-0.045,0.06-0.063,0.094c-0.026,0.038-0.048,0.081-0.063,0.125
	c-0.012,0.02-0.022,0.042-0.031,0.063c0,0.01,0,0.021,0,0.031c-0.001,0.021-0.001,0.042,0,0.063v0.5H3.844H1
	c-0.262,0-0.5,0.238-0.5,0.5v10c0,0.262,0.238,0.5,0.5,0.5h5.5v3.5c0,0.276,0.224,0.5,0.5,0.5h8c0.276,0,0.5-0.224,0.5-0.5v-6.938
	c0.002-0.021,0.002-0.041,0-0.063c0-0.01,0-0.021,0-0.031c0.003-0.031,0.003-0.063,0-0.094c-0.009-0.021-0.02-0.042-0.031-0.063
	c-0.018-0.034-0.038-0.065-0.063-0.094c0-0.01,0-0.021,0-0.031c-0.02-0.022-0.04-0.043-0.063-0.063
	c-0.037-0.038-0.078-0.069-0.125-0.094l-2.75-2.75c-0.051-0.111-0.139-0.2-0.25-0.25c-0.01,0-0.021,0-0.031,0
	c-0.01-0.011-0.021-0.021-0.031-0.031c-0.021-0.001-0.041-0.001-0.063,0c-0.031-0.003-0.063-0.003-0.094,0h-0.156H11.5v-3.5
	c0-0.262-0.238-0.5-0.5-0.5H8.031H8H7.5v-0.5c-0.002-0.1-0.035-0.2-0.094-0.281c-0.044-0.078-0.11-0.144-0.188-0.188
	c-0.04-0.016-0.082-0.026-0.125-0.031H7.031c-0.01,0-0.021,0-0.031,0H5H4.938c-0.01,0-0.021,0-0.031,0H4.844z M1.5,1038.362h2v0.5
	c0,0.276,0.224,0.5,0.5,0.5h4c0.276,0,0.5-0.224,0.5-0.5v-0.5h2v3H7c-0.052-0.008-0.104-0.008-0.156,0
	c-0.214,0.07-0.355,0.275-0.344,0.5v5.5h-5V1038.362z M7.5,1042.362h4v1H9v1h2.5v0.5c0,0.01,0,0.021,0,0.031
	c-0.002,0.021-0.002,0.041,0,0.063c0.01,0.011,0.021,0.021,0.031,0.031c0.018,0.068,0.05,0.133,0.094,0.188
	c0.061,0.088,0.148,0.153,0.25,0.188H9v1h4v-1h1.5v6h-7V1042.362z M12.5,1043.05l1.313,1.313H12.5V1043.05z M9,1047.362v1h4v-1H9z
	 M9,1049.362v1h4v-1H9z"/>
</svg>
