<svg width="16px" height="16px" viewBox="0 0 16 16"
     xmlns="http://www.w3.org/2000/svg" version="1.1">
  <polygon
     points="6,12 1,7 1,12 "
     id="polygon4"
     transform="matrix(-1,0,0,1,14.999805,-5)" />
  <path
     d="M 9.5527344,2.2050781 C 10.553671,2.4732782 11.48488,3.0005045 12.242188,3.7578125 L 12.949219,4.4648438 11.535156,5.8789062 10.828125,5.171875 C 9.8164917,4.1602417 8.3467605,3.7664353 6.9648438,4.1367188 5.582927,4.5070022 4.5070022,5.582927 4.1367188,6.9648438 3.7664353,8.3467605 4.1602417,9.8164917 5.171875,10.828125 L 5.8789062,11.535156 4.4648438,12.949219 3.7578125,12.242188 C 2.2431966,10.727572 1.6506902,8.5162695 2.2050781,6.4472656 2.759466,4.3782618 4.3782618,2.759466 6.4472656,2.2050781 c 1.0345019,-0.2771939 2.1045325,-0.2682001 3.1054688,0 z" />

</svg>
