<svg width="16px" height="16px" viewBox="0 0 16 16"
     xmlns="http://www.w3.org/2000/svg" version="1.1">
  <path transform="translate(0,-1036.3622)" d="M8.781,1038.362
	l-0.125,0.125l-4.875,4.875l-0.125,0.125l-3,3l-0.313,0.313l0.25,0.344l3,4l0.156,0.219H4h2h0.219l0.125-0.156l3-3l0.313-0.313
	l4.688-4.688l0.313-0.313l-0.25-0.344l-3-4l-0.156-0.188H11H9H8.781z M9.188,1039.362h0.594l-4,4H5.188L9.188,1039.362z
	 M10.938,1039.612l2.406,3.188l-4.281,4.281l-2.406-3.188L10.938,1039.612z"/>
</svg>
