<?xml version="1.0" encoding="utf-8"?>
<!-- Generator: Adobe Illustrator 16.0.0, SVG Export Plug-In . SVG Version: 6.00 Build 0)  -->
<!DOCTYPE svg PUBLIC "-//W3C//DTD SVG 1.1//EN" "http://www.w3.org/Graphics/SVG/1.1/DTD/svg11.dtd">
<svg version="1.1"
	 id="svg2" xmlns:dc="http://purl.org/dc/elements/1.1/" xmlns:cc="http://creativecommons.org/ns#" xmlns:rdf="http://www.w3.org/1999/02/22-rdf-syntax-ns#" xmlns:svg="http://www.w3.org/2000/svg" xmlns:sodipodi="http://sodipodi.sourceforge.net/DTD/sodipodi-0.dtd" xmlns:inkscape="http://www.inkscape.org/namespaces/inkscape" inkscape:export-filename="/home/samclarke/Desktop/new icons/bullet-list.png" inkscape:export-ydpi="90" inkscape:export-xdpi="90" sodipodi:docname="size.svg" inkscape:version="0.48.3.1 r9886"
	 xmlns="http://www.w3.org/2000/svg" xmlns:xlink="http://www.w3.org/1999/xlink" x="0px" y="0px" width="16px" height="16px"
	 viewBox="0 0 16 16" enable-background="new 0 0 16 16" xml:space="preserve">
<title  id="title3184">SCEditor</title>
<defs>
	
	
		<inkscape:perspective  id="perspective3023" inkscape:vp_z="16 : 8 : 1" inkscape:vp_y="0 : 1000 : 0" inkscape:vp_x="0 : 8 : 1" sodipodi:type="inkscape:persp3d" inkscape:persp3d-origin="8 : 5.3333333 : 1">
		</inkscape:perspective>
</defs>
<sodipodi:namedview  id="base" showgrid="true" borderopacity="1.0" bordercolor="#666666" pagecolor="#ffffff" inkscape:cy="2.6839778" inkscape:cx="-1.1772893" inkscape:zoom="16" inkscape:window-maximized="1" inkscape:snap-global="true" inkscape:snap-bbox="true" inkscape:window-y="27" inkscape:window-x="0" inkscape:window-height="1025" inkscape:window-width="1920" inkscape:current-layer="layer1" inkscape:document-units="px" inkscape:pageshadow="2" inkscape:pageopacity="0">
	
		<inkscape:grid  originy="0.5px" originx="-2.7755576e-17px" enabled="true" visible="true" type="xygrid" id="grid3041" spacingy="1px" spacingx="1px" empspacing="5" snapvisiblegridlinesonly="true">
		</inkscape:grid>
</sodipodi:namedview>
<path id="layer1" transform="translate(0,-1036.3622)" inkscape:label="Layer 1" inkscape:groupmode="layer" d="M12.5,1037.018
	l-2.5,3.344h5L12.5,1037.018z M4.594,1040.862c-0.303,0.624-0.589,1.248-0.875,1.906c-0.277,0.65-0.581,1.334-0.875,2.063
	c-0.286,0.729-0.572,1.521-0.875,2.344s-0.631,1.717-0.969,2.688h2.094c0.095-0.313,0.2-0.64,0.313-0.969
	c0.121-0.329,0.262-0.64,0.375-0.969h3.5c0.113,0.329,0.231,0.64,0.344,0.969c0.121,0.329,0.217,0.656,0.313,0.969h2.188
	c-0.338-0.971-0.666-1.864-0.969-2.688s-0.611-1.615-0.906-2.344c-0.286-0.728-0.558-1.413-0.844-2.063
	c-0.286-0.659-0.581-1.282-0.875-1.906H4.594z M10,1042.362l2.5,3.313l2.5-3.313H10z M5.5,1042.893
	c0.052,0.13,0.132,0.306,0.219,0.531c0.086,0.225,0.2,0.486,0.313,0.781c0.121,0.295,0.245,0.613,0.375,0.969
	s0.268,0.734,0.406,1.125H4.25c0.139-0.391,0.245-0.77,0.375-1.125c0.139-0.355,0.293-0.674,0.406-0.969s0.194-0.556,0.281-0.781
	C5.399,1043.2,5.457,1043.023,5.5,1042.893z"/>
</svg>
