<?xml version="1.0" encoding="utf-8"?>
<!-- Generator: Adobe Illustrator 16.0.0, SVG Export Plug-In . SVG Version: 6.00 Build 0)  -->
<!DOCTYPE svg PUBLIC "-//W3C//DTD SVG 1.1//EN" "http://www.w3.org/Graphics/SVG/1.1/DTD/svg11.dtd">
<svg version="1.1"
	 id="svg2" sodipodi:docname="superscript.svg" inkscape:export-ydpi="90" inkscape:export-xdpi="90" inkscape:export-filename="/home/samclarke/Desktop/new icons/bullet-list.png" inkscape:version="0.48.3.1 r9886" xmlns:dc="http://purl.org/dc/elements/1.1/" xmlns:cc="http://creativecommons.org/ns#" xmlns:rdf="http://www.w3.org/1999/02/22-rdf-syntax-ns#" xmlns:svg="http://www.w3.org/2000/svg" xmlns:sodipodi="http://sodipodi.sourceforge.net/DTD/sodipodi-0.dtd" xmlns:inkscape="http://www.inkscape.org/namespaces/inkscape"
	 xmlns="http://www.w3.org/2000/svg" xmlns:xlink="http://www.w3.org/1999/xlink" x="0px" y="0px" width="16px" height="16px"
	 viewBox="0 0 16 16" enable-background="new 0 0 16 16" xml:space="preserve">
<title  id="title3184">SCEditor</title>
<defs>
	
	
		<inkscape:perspective  inkscape:persp3d-origin="8 : 5.3333333 : 1" inkscape:vp_z="16 : 8 : 1" inkscape:vp_y="0 : 1000 : 0" inkscape:vp_x="0 : 8 : 1" sodipodi:type="inkscape:persp3d" id="perspective3023">
		</inkscape:perspective>
</defs>
<sodipodi:namedview  inkscape:window-maximized="0" inkscape:snap-global="true" inkscape:snap-bbox="true" inkscape:window-y="141" inkscape:window-x="763" inkscape:window-height="667" inkscape:window-width="907" inkscape:current-layer="layer1" inkscape:document-units="px" inkscape:pageshadow="2" inkscape:pageopacity="0" showgrid="true" borderopacity="1.0" bordercolor="#666666" pagecolor="#ffffff" inkscape:cy="2.8991142" inkscape:cx="1.7306027" inkscape:zoom="16" id="base" showguides="true" inkscape:guide-bbox="true">
	
		<inkscape:grid  snapvisiblegridlinesonly="true" spacingy="1px" spacingx="1px" empspacing="5" id="grid3041" visible="true" type="xygrid" originy="0.5px" originx="2.7755576e-17px" enabled="true">
		</inkscape:grid>
</sodipodi:namedview>
<path id="layer1" transform="translate(0,-1036.3622)" inkscape:groupmode="layer" inkscape:label="Layer 1" d="M12.969,1037.862
	c-0.58,0-1.082,0.142-1.469,0.438s-0.614,0.789-0.688,1.469l1.25,0.125c0.023-0.36,0.098-0.626,0.25-0.781s0.367-0.219,0.625-0.219
	c0.261,0,0.447,0.069,0.594,0.219c0.149,0.146,0.219,0.35,0.219,0.625c0,0.249-0.08,0.495-0.25,0.75
	c-0.126,0.185-0.475,0.544-1.031,1.063c-0.691,0.642-1.141,1.173-1.375,1.563c-0.234,0.387-0.391,0.785-0.438,1.219H15v-1.156
	h-2.438c0.064-0.111,0.147-0.227,0.25-0.344c0.105-0.117,0.329-0.33,0.719-0.688s0.663-0.653,0.813-0.844
	c0.226-0.287,0.397-0.552,0.5-0.813c0.105-0.264,0.156-0.554,0.156-0.844c0-0.51-0.168-0.938-0.531-1.281
	S13.604,1037.862,12.969,1037.862z M1.281,1040.175l3.125,4.656c-0.672,0.934-1.293,1.826-1.844,2.656
	c-0.542,0.83-1.027,1.619-1.438,2.375h2.5c0.084-0.178,0.229-0.41,0.406-0.719s0.367-0.633,0.563-0.969
	c0.206-0.336,0.398-0.67,0.594-0.969c0.206-0.299,0.369-0.52,0.5-0.688c0.42,0.578,0.776,1.158,1.094,1.719
	c0.327,0.551,0.636,1.084,0.906,1.625h2.625c-0.309-0.588-0.718-1.298-1.25-2.156c-0.532-0.868-1.216-1.826-2-2.844l3.094-4.688
	h-2.5l-1.844,3l-1.875-3H1.281z"/>
</svg>
