<svg width="16px" height="16px" viewBox="0 0 16 16"
     xmlns="http://www.w3.org/2000/svg" version="1.1">
  <rect x="1" y="2" width="14" height="2" />

  <path
     d="M 1 4 L 1 4.5 L 1 14 L 15 14 L 15 4 L 10.5 4 L 9.5 4 L 6.5 4 L 5.5 4 L 1 4 z M 2 5 L 5.5 5 L 5.5 7 L 2 7 L 2 5 z M 6.5 5 L 9.5 5 L 9.5 7 L 6.5 7 L 6.5 5 z M 10.5 5 L 14 5 L 14 7 L 10.5 7 L 10.5 5 z M 2 8 L 5.5 8 L 5.5 10 L 2 10 L 2 8 z M 6.5 8 L 9.5 8 L 9.5 10 L 6.5 10 L 6.5 8 z M 10.5 8 L 14 8 L 14 10 L 10.5 10 L 10.5 8 z M 2 11 L 5.5 11 L 5.5 13 L 2 13 L 2 11 z M 6.5 11 L 9.5 11 L 9.5 13 L 6.5 13 L 6.5 11 z M 10.5 11 L 14 11 L 14 13 L 10.5 13 L 10.5 11 z " />
</svg>
