<?xml version="1.0" encoding="utf-8"?>
<!-- Generator: Adobe Illustrator 16.0.0, SVG Export Plug-In . SVG Version: 6.00 Build 0)  -->
<!DOCTYPE svg PUBLIC "-//W3C//DTD SVG 1.1//EN" "http://www.w3.org/Graphics/SVG/1.1/DTD/svg11.dtd">
<svg version="1.1"
	 id="svg2" inkscape:export-filename="/home/samclarke/Desktop/new icons/bullet-list.png" xmlns:dc="http://purl.org/dc/elements/1.1/" xmlns:cc="http://creativecommons.org/ns#" xmlns:rdf="http://www.w3.org/1999/02/22-rdf-syntax-ns#" xmlns:svg="http://www.w3.org/2000/svg" xmlns:sodipodi="http://sodipodi.sourceforge.net/DTD/sodipodi-0.dtd" xmlns:inkscape="http://www.inkscape.org/namespaces/inkscape" inkscape:version="0.48.4 r9939" sodipodi:docname="table.svg" inkscape:export-xdpi="90" inkscape:export-ydpi="90"
	 xmlns="http://www.w3.org/2000/svg" xmlns:xlink="http://www.w3.org/1999/xlink" x="0px" y="0px" width="16px" height="16px"
	 viewBox="0 0 16 16" enable-background="new 0 0 16 16" xml:space="preserve">
<title  id="title3184">SCEditor</title>
<defs>
	
	
		<inkscape:perspective  id="perspective3023" sodipodi:type="inkscape:persp3d" inkscape:vp_x="0 : 8 : 1" inkscape:vp_y="0 : 1000 : 0" inkscape:vp_z="16 : 8 : 1" inkscape:persp3d-origin="8 : 5.3333333 : 1">
		</inkscape:perspective>
</defs>
<sodipodi:namedview  id="base" inkscape:window-maximized="1" inkscape:zoom="45.254834" inkscape:cx="10.140886" inkscape:cy="17.560065" pagecolor="#ffffff" bordercolor="#666666" borderopacity="1.0" showgrid="true" inkscape:pageopacity="0" inkscape:pageshadow="2" inkscape:document-units="px" inkscape:current-layer="svg2" inkscape:window-width="1855" inkscape:window-height="1056" inkscape:window-x="65" inkscape:window-y="24" inkscape:snap-bbox="true" inkscape:snap-global="true">
	
		<inkscape:grid  visible="true" enabled="true" originx="2.7755576e-17px" originy="2.7755576e-17px" id="grid3041" type="xygrid" empspacing="5" spacingx="1px" spacingy="1px" snapvisiblegridlinesonly="true">
		</inkscape:grid>
</sodipodi:namedview>
<path d="M1,1v0.969V4h14V2V1h-1.094H1.938H1z M1,5v10h14V5H1z M2,6h3v2H2V6z M6,6h4v2H6V6z M11,6h3v2h-3V6z M2,9h3v2H2V9z M6,9h4v2
	H6V9z M11,9h3v2h-3V9z M2,12h3v2H2V12z M6,12h4v2H6V12z M11,12h3v2h-3V12z"/>
</svg>
