<?xml version="1.0" encoding="utf-8"?>
<!-- Generator: Adobe Illustrator 16.0.0, SVG Export Plug-In . SVG Version: 6.00 Build 0)  -->
<!DOCTYPE svg PUBLIC "-//W3C//DTD SVG 1.1//EN" "http://www.w3.org/Graphics/SVG/1.1/DTD/svg11.dtd">
<svg version="1.1"
	 id="svg2" xmlns:dc="http://purl.org/dc/elements/1.1/" xmlns:cc="http://creativecommons.org/ns#" xmlns:rdf="http://www.w3.org/1999/02/22-rdf-syntax-ns#" xmlns:svg="http://www.w3.org/2000/svg" xmlns:sodipodi="http://sodipodi.sourceforge.net/DTD/sodipodi-0.dtd" xmlns:inkscape="http://www.inkscape.org/namespaces/inkscape" inkscape:export-filename="/home/samclarke/Desktop/new icons/bullet-list.png" inkscape:export-ydpi="90" inkscape:export-xdpi="90" sodipodi:docname="table.svg" inkscape:version="0.48.3.1 r9886"
	 xmlns="http://www.w3.org/2000/svg" xmlns:xlink="http://www.w3.org/1999/xlink" x="0px" y="0px" width="16px" height="16px"
	 viewBox="0 0 16 16" enable-background="new 0 0 16 16" xml:space="preserve">
<title  id="title3184">SCEditor</title>
<defs>
	
	
		<inkscape:perspective  id="perspective3023" inkscape:vp_z="16 : 8 : 1" inkscape:vp_y="0 : 1000 : 0" inkscape:vp_x="0 : 8 : 1" sodipodi:type="inkscape:persp3d" inkscape:persp3d-origin="8 : 5.3333333 : 1">
		</inkscape:perspective>
</defs>
<sodipodi:namedview  id="base" showgrid="true" borderopacity="1.0" bordercolor="#666666" pagecolor="#ffffff" inkscape:cy="3.6000692" inkscape:cx="11.0007" inkscape:zoom="32" inkscape:window-maximized="1" inkscape:snap-global="true" inkscape:snap-bbox="true" inkscape:window-y="27" inkscape:window-x="0" inkscape:window-height="1025" inkscape:window-width="1920" inkscape:current-layer="layer1" inkscape:document-units="px" inkscape:pageshadow="2" inkscape:pageopacity="0">
	
		<inkscape:grid  originy="0.5px" originx="2.7755576e-17px" enabled="true" visible="true" type="xygrid" id="grid3041" spacingy="1px" spacingx="1px" empspacing="5" snapvisiblegridlinesonly="true">
		</inkscape:grid>
</sodipodi:namedview>
<path id="layer1" transform="translate(0,-1036.3622)" inkscape:label="Layer 1" inkscape:groupmode="layer" d="M3.5,1039.362
	c-1.083,0-1.792,0.298-2.156,0.844C0.98,1040.751,1,1041.362,1,1041.862v5c0,0.5-0.02,1.079,0.344,1.625s1.073,0.875,2.156,0.875h9
	c1.084,0,1.793-0.329,2.156-0.875s0.344-1.125,0.344-1.625v-5c0-0.549,0.027-1.179-0.344-1.719s-1.081-0.781-2.156-0.781H3.5z
	 M3.5,1040.362h2.25v2.25H2v-0.75c0-0.5,0.02-0.921,0.156-1.125S2.583,1040.362,3.5,1040.362z M6.25,1040.362h3.5v2.25h-3.5
	V1040.362z M10.25,1040.362h2.25c0.925,0,1.215,0.158,1.344,0.344s0.156,0.607,0.156,1.156v0.75h-3.75V1040.362z M2,1043.112h3.75
	v2.5H2V1043.112z M6.25,1043.112h3.5v2.5h-3.5V1043.112z M10.25,1043.112H14v2.5h-3.75V1043.112z M2,1046.112h3.75v2.25H3.5
	c-0.917,0-1.208-0.202-1.344-0.406C2.02,1047.751,2,1047.362,2,1046.862V1046.112z M6.25,1046.112h3.5v2.25h-3.5V1046.112z
	 M10.25,1046.112H14v0.75c0,0.5-0.02,0.889-0.156,1.094c-0.137,0.204-0.428,0.406-1.344,0.406h-2.25V1046.112z"/>
</svg>
