<?xml version="1.0" encoding="UTF-8" standalone="no"?>
<!-- Generator: Adobe Illustrator 16.0.0, SVG Export Plug-In . SVG Version: 6.00 Build 0)  -->

<svg
   xmlns:dc="http://purl.org/dc/elements/1.1/"
   xmlns:cc="http://creativecommons.org/ns#"
   xmlns:rdf="http://www.w3.org/1999/02/22-rdf-syntax-ns#"
   xmlns:svg="http://www.w3.org/2000/svg"
   xmlns="http://www.w3.org/2000/svg"
   xmlns:sodipodi="http://sodipodi.sourceforge.net/DTD/sodipodi-0.dtd"
   xmlns:inkscape="http://www.inkscape.org/namespaces/inkscape"
   version="1.1"
   id="svg2"
   sodipodi:docname="time.svg"
   inkscape:export-ydpi="90"
   inkscape:export-xdpi="90"
   inkscape:export-filename="/home/samclarke/Desktop/new icons/bullet-list.png"
   inkscape:version="0.48.4 r9939"
   x="0px"
   y="0px"
   width="16px"
   height="16px"
   viewBox="0 0 16 16"
   enable-background="new 0 0 16 16"
   xml:space="preserve"><metadata
     id="metadata10"><rdf:RDF><cc:Work
         rdf:about=""><dc:format>image/svg+xml</dc:format><dc:type
           rdf:resource="http://purl.org/dc/dcmitype/StillImage" /></cc:Work></rdf:RDF></metadata><title
     id="title3184">SCEditor</title><defs
     id="defs4"><inkscape:perspective
       inkscape:persp3d-origin="8 : 5.3333333 : 1"
       inkscape:vp_z="16 : 8 : 1"
       inkscape:vp_y="0 : 1000 : 0"
       inkscape:vp_x="0 : 8 : 1"
       sodipodi:type="inkscape:persp3d"
       id="perspective3023" /></defs><sodipodi:namedview
     inkscape:window-maximized="0"
     inkscape:snap-global="true"
     inkscape:snap-bbox="true"
     inkscape:window-y="88"
     inkscape:window-x="766"
     inkscape:window-height="841"
     inkscape:window-width="935"
     inkscape:current-layer="svg2"
     inkscape:document-units="px"
     inkscape:pageshadow="2"
     inkscape:pageopacity="0"
     showgrid="true"
     borderopacity="1.0"
     bordercolor="#666666"
     pagecolor="#ffffff"
     inkscape:cy="10.716572"
     inkscape:cx="8.7551033"
     inkscape:zoom="32"
     id="base"><inkscape:grid
       snapvisiblegridlinesonly="true"
       spacingy="1px"
       spacingx="1px"
       empspacing="5"
       id="grid3041"
       visible="true"
       type="xygrid"
       originy="-2.7755576e-17px"
       originx="-2.7755576e-17px"
       enabled="true" /></sodipodi:namedview><path
     d="M 8,0 C 3,0 0,4 0,8 c 0,4 3,8 8,8 5,0 8,-4 8,-8 C 16,4 13,0 8,0 z m 0,2 c 3.461,0 6,2.539 6,6 0,3.461 -2.539,6 -6,6 C 4.54,14 2,11.461 2,8 2,4.539 4.54,2 8,2 z M 7,3 7,9 9.5,11 11,9.5 9,8 C 9,6.3333333 9,4.6666667 9,3 z"
     id="layer1"
     inkscape:connector-curvature="0"
     sodipodi:nodetypes="ssssssssssccccccc" /></svg>