<?xml version="1.0" encoding="utf-8"?>
<!-- Generator: Adobe Illustrator 16.0.0, SVG Export Plug-In . SVG Version: 6.00 Build 0)  -->
<!DOCTYPE svg PUBLIC "-//W3C//DTD SVG 1.1//EN" "http://www.w3.org/Graphics/SVG/1.1/DTD/svg11.dtd">
<svg version="1.1"
	 id="svg2" sodipodi:docname="time.svg" inkscape:export-ydpi="90" inkscape:export-xdpi="90" inkscape:export-filename="/home/samclarke/Desktop/new icons/bullet-list.png" inkscape:version="0.48.3.1 r9886" xmlns:dc="http://purl.org/dc/elements/1.1/" xmlns:cc="http://creativecommons.org/ns#" xmlns:rdf="http://www.w3.org/1999/02/22-rdf-syntax-ns#" xmlns:svg="http://www.w3.org/2000/svg" xmlns:sodipodi="http://sodipodi.sourceforge.net/DTD/sodipodi-0.dtd" xmlns:inkscape="http://www.inkscape.org/namespaces/inkscape"
	 xmlns="http://www.w3.org/2000/svg" xmlns:xlink="http://www.w3.org/1999/xlink" x="0px" y="0px" width="16px" height="16px"
	 viewBox="0 0 16 16" enable-background="new 0 0 16 16" xml:space="preserve">
<title  id="title3184">SCEditor</title>
<defs>
	
	
		<inkscape:perspective  inkscape:persp3d-origin="8 : 5.3333333 : 1" inkscape:vp_z="16 : 8 : 1" inkscape:vp_y="0 : 1000 : 0" inkscape:vp_x="0 : 8 : 1" sodipodi:type="inkscape:persp3d" id="perspective3023">
		</inkscape:perspective>
</defs>
<sodipodi:namedview  inkscape:window-maximized="0" inkscape:snap-global="true" inkscape:snap-bbox="true" inkscape:window-y="88" inkscape:window-x="766" inkscape:window-height="425" inkscape:window-width="525" inkscape:current-layer="layer1" inkscape:document-units="px" inkscape:pageshadow="2" inkscape:pageopacity="0" showgrid="true" borderopacity="1.0" bordercolor="#666666" pagecolor="#ffffff" inkscape:cy="8.043944" inkscape:cx="7.8406863" inkscape:zoom="16" id="base">
	
		<inkscape:grid  snapvisiblegridlinesonly="true" spacingy="1px" spacingx="1px" empspacing="5" id="grid3041" visible="true" type="xygrid" originy="0.5px" originx="2.7755576e-17px" enabled="true">
		</inkscape:grid>
</sodipodi:namedview>
<path id="layer1" transform="translate(0,-1036.3622)" inkscape:groupmode="layer" inkscape:label="Layer 1" d="M8,1036.612
	c-4.271,0-7.75,3.479-7.75,7.75s3.479,7.75,7.75,7.75s7.75-3.479,7.75-7.75S12.271,1036.612,8,1036.612z M8,1038.112
	c3.461,0,6.25,2.789,6.25,6.25s-2.789,6.25-6.25,6.25c-3.46,0-6.25-2.789-6.25-6.25S4.54,1038.112,8,1038.112z M7.25,1039.862v5
	v0.313l0.219,0.219l2,2l1.063-1.063l-1.781-1.781v-4.688H7.25z"/>
</svg>
