<?xml version="1.0" encoding="UTF-8" standalone="no"?>
<!-- Generator: Adobe Illustrator 16.0.0, SVG Export Plug-In . SVG Version: 6.00 Build 0)  -->

<svg
   xmlns:dc="http://purl.org/dc/elements/1.1/"
   xmlns:cc="http://creativecommons.org/ns#"
   xmlns:rdf="http://www.w3.org/1999/02/22-rdf-syntax-ns#"
   xmlns:svg="http://www.w3.org/2000/svg"
   xmlns="http://www.w3.org/2000/svg"
   xmlns:sodipodi="http://sodipodi.sourceforge.net/DTD/sodipodi-0.dtd"
   xmlns:inkscape="http://www.inkscape.org/namespaces/inkscape"
   version="1.1"
   id="svg2"
   sodipodi:docname="underline.old.svg"
   inkscape:export-ydpi="90"
   inkscape:export-xdpi="90"
   inkscape:export-filename="/home/samclarke/Desktop/new icons/bullet-list.png"
   inkscape:version="0.48.4 r9939"
   x="0px"
   y="0px"
   width="16px"
   height="16px"
   viewBox="0 0 16 16"
   enable-background="new 0 0 16 16"
   xml:space="preserve"><metadata
     id="metadata10"><rdf:RDF><cc:Work
         rdf:about=""><dc:format>image/svg+xml</dc:format><dc:type
           rdf:resource="http://purl.org/dc/dcmitype/StillImage" /></cc:Work></rdf:RDF></metadata><title
     id="title3184">SCEditor</title><defs
     id="defs4"><inkscape:perspective
       inkscape:persp3d-origin="8 : 5.3333333 : 1"
       inkscape:vp_z="16 : 8 : 1"
       inkscape:vp_y="0 : 1000 : 0"
       inkscape:vp_x="0 : 8 : 1"
       sodipodi:type="inkscape:persp3d"
       id="perspective3023" /></defs><sodipodi:namedview
     inkscape:window-maximized="0"
     inkscape:snap-global="true"
     inkscape:snap-bbox="true"
     inkscape:window-y="63"
     inkscape:window-x="535"
     inkscape:window-height="906"
     inkscape:window-width="1256"
     inkscape:current-layer="svg2"
     inkscape:document-units="px"
     inkscape:pageshadow="2"
     inkscape:pageopacity="0"
     showgrid="true"
     borderopacity="1.0"
     bordercolor="#666666"
     pagecolor="#ffffff"
     inkscape:cy="5.9545367"
     inkscape:cx="10.169617"
     inkscape:zoom="22.627417"
     id="base"><inkscape:grid
       snapvisiblegridlinesonly="true"
       spacingy="1px"
       spacingx="1px"
       empspacing="5"
       id="grid3041"
       visible="true"
       type="xygrid"
       originy="2.7755576e-17px"
       originx="2.7755576e-17px"
       enabled="true" /></sodipodi:namedview><path
     id="layer1"
     transform="translate(0,-1036.3622)"
     inkscape:groupmode="layer"
     inkscape:label="Layer 1"
     d="m 3,1037.3622 0.03,6.687 c 0.00288,0.641 0.079,1.217 0.25,1.75 0.171,0.533 0.429,1.012 0.781,1.406 0.363,0.395 0.831,0.682 1.375,0.906 0.544,0.213 1.806,0.251 2.564,0.251 0.758,0 2.069,-0.038 2.624,-0.251 0.555,-0.225 1.023,-0.512 1.375,-0.906 0.363,-0.395 0.61,-0.873 0.781,-1.406 0.182,-0.533 0.283876,-1.109 0.281,-1.75 l -0.03,-6.687 -2.031,0 c 0,0 0,4 0,6.25 0,0.502 -0.07389,0.9168 -0.188,1.281 -0.109901,0.3508 -0.258681,0.6475 -0.469,0.875 -0.205711,0.2225 -0.4621623,0.3936 -0.75,0.5 -0.288163,0.1066 -1.24,0.094 -1.593,0.094 -0.353,0 -1.3076731,0.014 -1.595,-0.094 -0.2776847,-0.1042 -0.5396812,-0.2725 -0.75,-0.5 -0.2057111,-0.2225 -0.3585567,-0.5209 -0.469,-0.875 -0.1125944,-0.361 -0.156,-0.779 -0.156,-1.281 0,-2.25 0,-6.25 0,-6.25 z m -1,11.9998 0,2.0002 12,0 0,-2.0002 z"
     inkscape:connector-curvature="0"
     sodipodi:nodetypes="cssccscccsccsssssssssccccccc" /></svg>