<?xml version="1.0" encoding="utf-8"?>
<!-- Generator: Adobe Illustrator 16.0.0, SVG Export Plug-In . SVG Version: 6.00 Build 0)  -->
<!DOCTYPE svg PUBLIC "-//W3C//DTD SVG 1.1//EN" "http://www.w3.org/Graphics/SVG/1.1/DTD/svg11.dtd">
<svg version="1.1"
	 id="svg2" sodipodi:docname="underline.svg" inkscape:export-ydpi="90" inkscape:export-xdpi="90" inkscape:export-filename="/home/samclarke/Desktop/new icons/bullet-list.png" inkscape:version="0.48.3.1 r9886" xmlns:dc="http://purl.org/dc/elements/1.1/" xmlns:cc="http://creativecommons.org/ns#" xmlns:rdf="http://www.w3.org/1999/02/22-rdf-syntax-ns#" xmlns:svg="http://www.w3.org/2000/svg" xmlns:sodipodi="http://sodipodi.sourceforge.net/DTD/sodipodi-0.dtd" xmlns:inkscape="http://www.inkscape.org/namespaces/inkscape"
	 xmlns="http://www.w3.org/2000/svg" xmlns:xlink="http://www.w3.org/1999/xlink" x="0px" y="0px" width="16px" height="16px"
	 viewBox="0 0 16 16" enable-background="new 0 0 16 16" xml:space="preserve">
<title  id="title3184">SCEditor</title>
<defs>
	
	
		<inkscape:perspective  inkscape:persp3d-origin="8 : 5.3333333 : 1" inkscape:vp_z="16 : 8 : 1" inkscape:vp_y="0 : 1000 : 0" inkscape:vp_x="0 : 8 : 1" sodipodi:type="inkscape:persp3d" id="perspective3023">
		</inkscape:perspective>
</defs>
<sodipodi:namedview  inkscape:window-maximized="0" inkscape:snap-global="true" inkscape:snap-bbox="true" inkscape:window-y="61" inkscape:window-x="1051" inkscape:window-height="580" inkscape:window-width="785" inkscape:current-layer="layer1" inkscape:document-units="px" inkscape:pageshadow="2" inkscape:pageopacity="0" showgrid="true" borderopacity="1.0" bordercolor="#666666" pagecolor="#ffffff" inkscape:cy="7.2990763" inkscape:cx="7.4768725" inkscape:zoom="22.627417" id="base">
	
		<inkscape:grid  snapvisiblegridlinesonly="true" spacingy="1px" spacingx="1px" empspacing="5" id="grid3041" visible="true" type="xygrid" originy="0.5px" originx="2.7755576e-17px" enabled="true">
		</inkscape:grid>
</sodipodi:namedview>
<path id="layer1" transform="translate(0,-1036.3622)" inkscape:groupmode="layer" inkscape:label="Layer 1" d="M3.625,1038.518
	v6.938c0,0.641,0.079,1.217,0.25,1.75s0.429,1.012,0.781,1.406c0.363,0.395,0.831,0.682,1.375,0.906
	c0.544,0.213,1.18,0.313,1.938,0.313c0.758,0,1.414-0.1,1.969-0.313c0.555-0.225,1.023-0.512,1.375-0.906
	c0.363-0.395,0.61-0.873,0.781-1.406c0.182-0.533,0.281-1.109,0.281-1.75v-6.938h-2.031v6.75c0,0.502-0.07,0.918-0.188,1.281
	c-0.106,0.352-0.256,0.65-0.469,0.875c-0.203,0.225-0.462,0.394-0.75,0.5c-0.288,0.107-0.585,0.156-0.938,0.156
	s-0.681-0.05-0.969-0.156c-0.277-0.106-0.537-0.275-0.75-0.5c-0.203-0.225-0.352-0.523-0.469-0.875
	c-0.106-0.363-0.156-0.779-0.156-1.281v-6.75H3.625z M2,1050.362v1h12v-1H2z"/>
</svg>
