<svg width="16px" height="16px" viewBox="0 0 16 16"
     xmlns="http://www.w3.org/2000/svg" version="1.1">

  <polygon
     points="1,12 6,12 1,7 "
     id="polygon4"
     transform="translate(1,-5)" />
  <path
     d="M 6.4472656,2.2050781 C 5.4463293,2.4732782 4.5151205,3.0005045 3.7578125,3.7578125 L 3.0507812,4.4648438 4.4648438,5.8789062 5.171875,5.171875 C 6.1835083,4.1602417 7.6532395,3.7664353 9.0351562,4.1367188 c 1.3819168,0.3702834 2.4578418,1.4462082 2.8281248,2.828125 0.370284,1.3819167 -0.02352,2.8516478 -1.035156,3.8632812 l -0.707031,0.707031 1.414062,1.414063 0.707032,-0.707031 C 13.756803,10.727571 14.34931,8.5162695 13.794922,6.4472656 13.240534,4.3782619 11.621738,2.759466 9.5527344,2.2050781 c -1.034502,-0.2771939 -2.1045325,-0.2682001 -3.1054688,0 z" />

</svg>
