<svg width="16px" height="16px" viewBox="0 0 16 16"
     xmlns="http://www.w3.org/2000/svg" version="1.1">
  <path transform="translate(0,-1036.3622)" d="M2,1040.362
	c-0.625,0-1.009,0.438-1.188,0.75s-0.269,0.63-0.344,0.969c-0.15,0.677-0.219,1.476-0.219,2.281s0.068,1.604,0.219,2.281
	c0.075,0.339,0.165,0.625,0.344,0.938s0.563,0.781,1.188,0.781c2,0,3.182,0,4,0v-2c-0.722,0-1.93,0-3.531,0
	c-0.022-0.066-0.042-0.061-0.063-0.156c-0.1-0.447-0.156-1.149-0.156-1.844s0.057-1.396,0.156-1.844
	c0.02-0.088,0.042-0.092,0.063-0.156c1.001,0,2.139,0,3.531,0v-2C4.423,1040.362,3.068,1040.362,2,1040.362z M10,1040.362v2h3.531
	c0.021,0.064,0.043,0.068,0.063,0.156c0.1,0.448,0.156,1.149,0.156,1.844s-0.057,1.396-0.156,1.844
	c-0.021,0.095-0.041,0.09-0.063,0.156H10v2h4c0.625,0,1.009-0.469,1.188-0.781s0.269-0.599,0.344-0.938
	c0.15-0.678,0.219-1.476,0.219-2.281s-0.068-1.604-0.219-2.281c-0.075-0.339-0.165-0.656-0.344-0.969s-0.563-0.75-1.188-0.75H10z"/>
</svg>
