<?xml version="1.0" encoding="utf-8"?>
<!-- Generator: Adobe Illustrator 16.0.0, SVG Export Plug-In . SVG Version: 6.00 Build 0)  -->
<!DOCTYPE svg PUBLIC "-//W3C//DTD SVG 1.1//EN" "http://www.w3.org/Graphics/SVG/1.1/DTD/svg11.dtd">
<svg version="1.1"
	 id="svg2" sodipodi:docname="youtube.svg" inkscape:export-ydpi="90" inkscape:export-xdpi="90" inkscape:export-filename="/home/samclarke/Desktop/new icons/bullet-list.png" inkscape:version="0.48.3.1 r9886" xmlns:dc="http://purl.org/dc/elements/1.1/" xmlns:cc="http://creativecommons.org/ns#" xmlns:rdf="http://www.w3.org/1999/02/22-rdf-syntax-ns#" xmlns:svg="http://www.w3.org/2000/svg" xmlns:sodipodi="http://sodipodi.sourceforge.net/DTD/sodipodi-0.dtd" xmlns:inkscape="http://www.inkscape.org/namespaces/inkscape"
	 xmlns="http://www.w3.org/2000/svg" xmlns:xlink="http://www.w3.org/1999/xlink" x="0px" y="0px" width="16px" height="16px"
	 viewBox="0 0 16 16" enable-background="new 0 0 16 16" xml:space="preserve">
<title  id="title3184">SCEditor</title>
<defs>
	
	
		<inkscape:perspective  inkscape:persp3d-origin="8 : 5.3333333 : 1" inkscape:vp_z="16 : 8 : 1" inkscape:vp_y="0 : 1000 : 0" inkscape:vp_x="0 : 8 : 1" sodipodi:type="inkscape:persp3d" id="perspective3023">
		</inkscape:perspective>
</defs>
<sodipodi:namedview  inkscape:window-maximized="0" inkscape:snap-global="true" inkscape:snap-bbox="true" inkscape:window-y="74" inkscape:window-x="169" inkscape:window-height="425" inkscape:window-width="868" inkscape:current-layer="layer1" inkscape:document-units="px" inkscape:pageshadow="2" inkscape:pageopacity="0" showgrid="true" borderopacity="1.0" bordercolor="#666666" pagecolor="#ffffff" inkscape:cy="8.4345377" inkscape:cx="6.9761546" inkscape:zoom="11.313709" id="base">
	
		<inkscape:grid  snapvisiblegridlinesonly="true" spacingy="1px" spacingx="0.9px" empspacing="5" id="grid3041" visible="true" type="xygrid" originy="2.7755576e-17px" originx="0.5px" enabled="true">
		</inkscape:grid>
</sodipodi:namedview>
<path id="layer1" transform="translate(0,-1036.3622)" inkscape:groupmode="layer" inkscape:label="Layer 1" d="M0.5,1036.862
	l1.813,2.906v2.094h1.031v-2.094l1.844-2.906H4l-1.156,1.969l-1.156-1.969H0.5z M6.313,1038.143c-0.355,0-0.679,0.093-0.969,0.25
	c-0.287,0.157-0.499,0.389-0.656,0.688s-0.219,0.587-0.219,0.906c0,0.417,0.062,0.771,0.219,1.063
	c0.157,0.289,0.387,0.506,0.688,0.656c0.303,0.15,0.636,0.25,0.969,0.25c0.538,0,0.959-0.203,1.313-0.563
	c0.355-0.362,0.531-0.795,0.531-1.344c0-0.544-0.149-1.02-0.5-1.375C7.336,1038.317,6.862,1038.143,6.313,1038.143z M8.688,1038.237
	v2.281c0,0.342,0.039,0.619,0.125,0.813s0.244,0.331,0.438,0.438c0.193,0.107,0.412,0.188,0.656,0.188
	c0.239,0,0.473-0.076,0.688-0.188c0.217-0.111,0.367-0.244,0.5-0.438v0.531H12v-3.625h-0.969v1.531c0,0.52-0.015,0.834-0.063,0.969
	c-0.048,0.132-0.151,0.253-0.281,0.344c-0.13,0.089-0.273,0.125-0.438,0.125c-0.144,0-0.25-0.028-0.344-0.094
	c-0.094-0.068-0.15-0.167-0.188-0.281c-0.034-0.116-0.063-0.427-0.063-0.938v-1.656H8.688z M6.344,1038.925
	c0.25,0,0.457,0.09,0.625,0.281c0.171,0.191,0.25,0.488,0.25,0.844c0,0.365-0.079,0.621-0.25,0.813
	c-0.168,0.191-0.375,0.313-0.625,0.313s-0.485-0.121-0.656-0.313s-0.25-0.452-0.25-0.813c0-0.36,0.079-0.652,0.25-0.844
	C5.858,1039.015,6.093,1038.925,6.344,1038.925z M8.094,1042.987c-1.806,0-3.606,0.031-4.969,0.094
	c-0.682,0.031-1.239,0.044-1.656,0.094c-0.208,0.025-0.384,0.055-0.531,0.094c-0.074,0.019-0.128,0.045-0.219,0.094
	c-0.045,0.024-0.124,0.055-0.188,0.125s-0.125,0.217-0.125,0.375v7c0,0.158,0.061,0.273,0.125,0.344s0.142,0.101,0.188,0.125
	c0.091,0.049,0.145,0.074,0.219,0.094c0.147,0.038,0.323,0.068,0.531,0.094c0.417,0.05,0.975,0.094,1.656,0.125
	c1.363,0.063,3.163,0.094,4.969,0.094s3.605-0.031,4.969-0.094c0.682-0.031,1.271-0.075,1.688-0.125
	c0.209-0.025,0.353-0.055,0.5-0.094c0.074-0.02,0.159-0.045,0.25-0.094c0.045-0.023,0.092-0.055,0.156-0.125
	s0.156-0.186,0.156-0.344v-7c0-0.158-0.092-0.305-0.156-0.375s-0.111-0.101-0.156-0.125c-0.091-0.049-0.176-0.075-0.25-0.094
	c-0.147-0.038-0.291-0.069-0.5-0.094c-0.417-0.05-1.006-0.062-1.688-0.094C11.699,1043.017,9.899,1042.987,8.094,1042.987z
	 M9.313,1044.362v2.125c0.225-0.2,0.461-0.344,0.813-0.344c0.744,0,1.219,0.611,1.219,1.844c0,1.568-0.707,2.188-1.844,2.188
	c-0.512,0-0.991-0.098-1.375-0.25v-5.375L9.313,1044.362z M1.313,1044.612h3.531L5,1045.768H3.781v4.375H2.469v-4.375H1.313
	V1044.612z M13.281,1046.143c1.04,0,1.5,0.833,1.5,1.969c0,0.128-0.023,0.334-0.031,0.406h-1.938
	c0.072,0.561,0.333,0.813,0.781,0.813c0.352,0,0.672-0.081,1.031-0.281l0.125,0.813c-0.336,0.2-0.792,0.344-1.344,0.344
	c-1.12,0-1.75-0.695-1.75-2.031C11.656,1047.022,12.249,1046.143,13.281,1046.143z M4.563,1046.206H5.75v2.688
	c0,0.168,0.066,0.281,0.25,0.281c0.144,0,0.286-0.067,0.438-0.188v-2.781h1.156v3.938H6.625l-0.063-0.406
	c-0.28,0.271-0.646,0.469-1.063,0.469c-0.632,0-0.938-0.352-0.938-1V1046.206z M13.25,1046.925c-0.24,0-0.397,0.266-0.438,0.906
	h0.875C13.68,1047.231,13.506,1046.925,13.25,1046.925z M9.719,1047.175c-0.137,0-0.262,0.099-0.406,0.219v1.781
	c0.088,0.032,0.146,0.063,0.219,0.063c0.408,0,0.688-0.341,0.688-1.125C10.219,1047.4,10.007,1047.175,9.719,1047.175z"/>
</svg>
