<svg width="16" height="16" viewBox="0 0 16 16" xmlns="http://www.w3.org/2000/svg"><path d="M6.404 5.002a.5.5 0 0 0-.406.5v10a.5.5 0 0 0 .5.5h8a.5.5 0 0 0 .5-.5V8.596a.492.492 0 0 0 0-.094.662.662 0 0 0 0-.063v-.063l-.031-.063v-.031a.557.557 0 0 0-.094-.094l-.031-.031-2.875-2.844a.498.498 0 0 0-.125-.156.5.5 0 0 0-.344-.156h-5a.59.59 0 0 0-.094.001c-.239.046.031-.003 0 0zm.594 1h4v2.5a.5.5 0 0 0 .5.5h2.5v6h-7v-9zm5 .687l1.313 1.313h-1.313V6.689zM1.406.002a.517.517 0 0 0-.406.5v10c0 .262.238.5.5.5H7V6l3-.063V3.596a.492.492 0 0 0 0-.094.331.331 0 0 0 0-.063v-.063c-.009-.021-.02-.041-.031-.062v-.031a.597.597 0 0 0-.094-.094l-.031-.031L6.969.314a.484.484 0 0 0-.125-.156A.506.506 0 0 0 6.5.002h-5a.492.492 0 0 0-.094 0c-.229.044.032-.003 0 0zm.594 1h4v2.5c0 .262.238.5.5.5H9v1.029L7 5 6 6v4l-4 .002v-9zm5 .687l1.313 1.313H7V1.689z"/></svg>