<svg width="16" height="16" viewBox="0 0 16 16" xmlns="http://www.w3.org/2000/svg"><path d="M3 .5c0 2.936 3.774 7.73 3.938 7.938l-1.813 2.844A2.46 2.46 0 0 0 4 11c-1.375 0-2.5 1.125-2.5 2.5S2.625 16 4 16s2.5-1.125 2.5-2.5c0-.444-.138-.856-.344-1.22L8 9.845l1.844 2.438A2.473 2.473 0 0 0 9.5 13.5c0 1.375 1.125 2.5 2.5 2.5s2.5-1.125 2.5-2.5S13.375 11 12 11a2.46 2.46 0 0 0-1.125.28L9.062 8.439C9.226 8.232 13 3.437 13 .5h-1L8 6.78 4 .5H3zM4 12c.834 0 1.5.666 1.5 1.5S4.834 15 4 15s-1.5-.666-1.5-1.5S3.166 12 4 12zm8 0c.834 0 1.5.666 1.5 1.5S12.834 15 12 15s-1.5-.666-1.5-1.5.666-1.5 1.5-1.5z"/></svg>