<svg width="16" height="16" viewBox="0 0 16 16" xmlns="http://www.w3.org/2000/svg"><path d="M8 1a7 7 0 1 0 0 14A7 7 0 0 0 8 1zm0 1a6 6 0 1 1 0 12A6 6 0 0 1 8 2zM6 5c-.546 0-1 .454-1 1s.454 1 1 1 1-.454 1-1-.454-1-1-1zm4 0c-.547 0-1 .454-1 1s.453 1 1 1c.547 0 1-.454 1-1s-.453-1-1-1zM4.5 9.5s-.002.652.469 1.281C5.44 11.409 6.389 12 8 12c1.611 0 2.561-.591 3.031-1.219.47-.629.469-1.281.469-1.281h-1s-.002.314-.281.688c-.279.374-.83.813-2.219.813-1.389 0-1.94-.44-2.219-.813C5.502 9.814 5.5 9.5 5.5 9.5z"/></svg>