<svg width="16" height="16" viewBox="0 0 16 16" xmlns="http://www.w3.org/2000/svg"><path d="M7.953 9.75h-4.06l-.395 1.141c-.132.381-.254.752-.368 1.109H.7c.391-1.119.762-2.154 1.113-3.105a104.642 104.642 0 0 1 2.024-5.079 52.23 52.23 0 0 1 1.016-2.212h2.218a80.63 80.63 0 0 1 2.011 4.605c.337.84.105.338.458 1.288s-1.455 2.63-1.587 2.253zM5.912 3.959c-.052.151-.129.357-.229.616-.1.26-.215.56-.343.901-.129.341-.273.716-.431 1.125-.159.409-.32.839-.484 1.288h2.972c-.159-.45-.312-.882-.461-1.292a46.81 46.81 0 0 0-.425-1.127c-.135-.34-.252-.641-.354-.9-.1-.26-.182-.463-.245-.611zm6.949 10.042a36.325 36.325 0 0 0-.35-1.037l-.371-1.063H8.352l-.368 1.064A41.69 41.69 0 0 0 7.64 14H5.373c.365-1.045.711-2.01 1.039-2.896.328-.886.648-1.723.962-2.506.313-.786.623-1.53.927-2.235.305-.705.62-1.393.948-2.065h2.069c.318.672.634 1.36.941 2.065.311.705.621 1.449.936 2.235.314.783.636 1.619.964 2.506.327.888.676 1.853 1.041 2.896l-2.339.001zm-2.625-7.504c-.049.141-.118.333-.213.576-.094.242-.2.521-.319.84-.121.317-.254.668-.402 1.051-.147.382-.299.783-.45 1.201h2.772c-.147-.42-.291-.822-.433-1.205a43.073 43.073 0 0 0-.396-1.053c-.125-.317-.233-.598-.33-.84a13.884 13.884 0 0 0-.229-.57z"/></svg>