<svg width="16" height="16" viewBox="0 0 16 16" xmlns="http://www.w3.org/2000/svg"><path d="M10.5 2v1.5H12c.235 0 .401-.009.5 0 .008.088 0 .279 0 .5v2H14V3.437c0-.237-.01-.409-.031-.593-.022-.185-.067-.42-.25-.594s-.407-.2-.594-.219A5.693 5.693 0 0 0 12.5 2zm0-2L7.187 2.5 10.5 5zm.5 5.187L13.5 8.5 16 5.187zm-.958-.339h-2.03l-3.234 8.456c-.154.392-.336.994-.854 1.022v.518h2.744v-.518c-.644-.168-.658-.462-.434-1.036l.784-2.086h3.43l.854 2.086c.238.574.308.924-.406 1.036v.518h3.276v-.518c-.434-.056-.546-.364-.686-.728l-3.444-8.75M7.424 10l1.26-3.318L10 10H7.424M4.912.975h-1.63L.686 7.764c-.124.314-.27.798-.686.82V9h2.203v-.416c-.517-.135-.528-.37-.348-.832l.629-1.674h2.754l.685 1.674c.192.461.248.742-.325.832V9c1.73.137 1.837-.002 2.079-1L4.912.975M2.81 5.11l1.012-2.664 1.056 2.664H2.81"/></svg>