<svg width="16" height="16" viewBox="0 0 16 16" xmlns="http://www.w3.org/2000/svg"><path d="M6 2h9v2H6zM6 7h9v2H6zM6 12h9v2H6zM3.201 12.846q.392.1.594.352.205.25.205.636 0 .576-.441.877-.441.298-1.287.298-.298 0-.599-.05-.298-.046-.591-.142v-.77q.28.14.555.212.277.07.545.07.396 0 .607-.137.212-.138.212-.394 0-.265-.218-.4-.215-.137-.638-.137h-.4v-.644h.421q.376 0 .56-.116.185-.12.185-.36 0-.224-.18-.346-.178-.122-.505-.122-.242 0-.488.055-.246.054-.49.16v-.731q.295-.083.586-.125.29-.041.57-.041.756 0 1.13.249.375.246.375.744 0 .34-.179.558-.179.215-.529.304zM2.296 9.237H4v.734H1.186v-.734L2.599 7.99q.19-.172.28-.335.091-.163.091-.34 0-.272-.184-.438-.182-.166-.485-.166-.234 0-.511.101-.278.099-.594.296v-.851q.337-.112.667-.169.329-.06.645-.06.696 0 1.08.307.386.306.386.853 0 .317-.163.592-.164.272-.688.731l-.827.726zM1.228 4.276h.903V1.714l-.927.19V1.21l.922-.191h.971v3.258H4v.706H1.228v-.706z"/></svg>