<svg width="16" height="16" viewBox="0 0 16 16" xmlns="http://www.w3.org/2000/svg"><path d="M4.406 0A.5.5 0 0 0 4 .5V1H1.5a.5.5 0 0 0-.5.5v10a.5.5 0 0 0 .5.5H6v2.5a.5.5 0 0 0 .5.5h8a.5.5 0 0 0 .5-.5V7.594a.492.492 0 0 0 0-.094.436.436 0 0 0 0-.125.916.916 0 0 0-.031-.063v-.031a.749.749 0 0 0-.063-.063.749.749 0 0 0-.063-.063l-2.875-2.844a.498.498 0 0 0-.125-.156A.498.498 0 0 0 11.5 4H10V1.5a.5.5 0 0 0-.5-.5H7V.5a.5.5 0 0 0-.5-.5h-2a.492.492 0 0 0-.094 0c-.239.045.032-.003 0 0zM2 2h1v.5a.5.5 0 0 0 .5.5h4a.5.5 0 0 0 .5-.5V2h1v2H6.5a.64.64 0 0 0-.062 0 .493.493 0 0 0-.094.031.474.474 0 0 0-.125.063l-.031.031-.031.031a.916.916 0 0 0-.063.031.47.47 0 0 0-.031.094l-.031.031A.506.506 0 0 0 6 4.5V11H2V2zm5 3h4v2.5a.5.5 0 0 0 .5.5H14v6H7v-2.406a.492.492 0 0 0 0-.094V5zm5 .688L13.313 7H12V5.688zM4.406 0A.5.5 0 0 0 4 .5V1H1.5a.5.5 0 0 0-.5.5v10a.5.5 0 0 0 .5.5h5a.5.5 0 0 0 .5-.5V5h2.5a.5.5 0 0 0 .5-.5v-3a.5.5 0 0 0-.5-.5H7V.5a.5.5 0 0 0-.5-.5h-2a.492.492 0 0 0-.094 0c-.239.045.032-.003 0 0zM2 2h1v.5a.5.5 0 0 0 .5.5h4a.5.5 0 0 0 .5-.5V2h1v2H6.5a.5.5 0 0 0-.5.5V11H2V2zm4.406 2A.5.5 0 0 0 6 4.5v10a.5.5 0 0 0 .5.5h8a.5.5 0 0 0 .5-.5V7.594a.492.492 0 0 0 0-.094.331.331 0 0 0 0-.063v-.063a.916.916 0 0 0-.031-.063V7.28a.523.523 0 0 0-.094-.094l-.031-.031-2.875-2.844a.498.498 0 0 0-.125-.156A.503.503 0 0 0 11.5 4h-5a.492.492 0 0 0-.094 0c-.239.045.032-.003 0 0zM7 5h4v2.5a.5.5 0 0 0 .5.5H14v6H7V5zm5 .688L13.313 7H12V5.688zM8 12h5v1H8v-1zm0-2h5v1H8v-1zm0-2h5v1H8V8zm0-2h3v1H8V6z"/></svg>