<svg width="16" height="16" viewBox="0 0 16 16" xmlns="http://www.w3.org/2000/svg"><path d="M12.5.656L10 4h5L12.5.656zM4.594 4.5a49.476 49.476 0 0 0-.875 1.906c-.277.65-.581 1.334-.875 2.063-.286.729-.572 1.52-.875 2.344S1.338 12.53 1 13.5h2.094c.095-.313.2-.64.313-.97.121-.328.262-.64.375-.968h3.5c.113.329.231.64.344.969.121.329.217.656.313.969h2.188c-.338-.971-.666-1.864-.969-2.688s-.611-1.615-.906-2.344a56.045 56.045 0 0 0-.844-2.063c-.286-.66-.581-1.282-.875-1.906H4.594zM10 6l2.5 3.313L15 6h-5zm-4.5.53c.052.13.132.307.219.532.086.225.2.486.313.78.121.296.245.614.375.97s.268.734.406 1.125H4.25c.139-.391.245-.77.375-1.125.139-.355.293-.674.406-.97s.194-.555.281-.78c.087-.224.145-.401.188-.531z"/></svg>