<svg width="16" height="16" viewBox="0 0 16 16" xmlns="http://www.w3.org/2000/svg"><path d="M2 4c-.625 0-1.009.438-1.188.75s-.269.63-.344.969c-.15.677-.219 1.476-.219 2.28s.068 1.605.219 2.282c.075.339.165.625.344.938s.563.78 1.188.78h4v-2H2.469c-.022-.065-.042-.06-.063-.155-.1-.447-.156-1.15-.156-1.844s.057-1.396.156-1.844c.02-.088.042-.092.063-.156H6V4H2zm8 0v2h3.531c.021.064.043.068.063.156.1.448.156 1.149.156 1.844s-.057 1.396-.156 1.844c-.021.095-.041.09-.063.156H10v2h4c.625 0 1.009-.47 1.188-.781s.269-.6.344-.938c.15-.678.219-1.476.219-2.281s-.068-1.604-.219-2.281c-.075-.34-.165-.656-.344-.97S14.625 4 14 4h-4z"/></svg>